Renner-500-MediumItalic.ufo
<glyph name="quotedbl" format="1">
  <advance width="486"/>
  <unicode hex="0022"/>
  <outline>
    <contour>
      <point x="243" y="700" type="line"/>
      <point x="364" y="700" type="line"/>
      <point x="214" y="392" type="line"/>
      <point x="141" y="392" type="line"/>
    </contour>
    <contour>
      <point x="435" y="700" type="line"/>
      <point x="557" y="700" type="line"/>
      <point x="407" y="392" type="line"/>
      <point x="334" y="392" type="line"/>
    </contour>
  </outline>
</glyph>
<glyph name="numbersign" format="1">
  <advance width="630"/>
  <unicode hex="0023"/>
  <outline>
    <contour>
      <point x="151" y="429" type="line"/>
      <point x="166" y="516" type="line"/>
      <point x="686" y="516" type="line"/>
      <point x="671" y="429" type="line"/>
      <point x="525" y="429" type="line" smooth="yes"/>
      <point x="505" y="431" type="line" smooth="yes"/>
      <point x="308" y="431" type="line" smooth="yes"/>
      <point x="289" y="429" type="line" smooth="yes"/>
    </contour>
    <contour>
      <point x="68" y="189" type="line"/>
      <point x="84" y="276" type="line"/>
      <point x="219" y="276" type="line" smooth="yes"/>
      <point x="240" y="274" type="line" smooth="yes"/>
      <point x="452" y="274" type="line" smooth="yes"/>
      <point x="477" y="276" type="line" smooth="yes"/>
      <point x="604" y="276" type="line"/>
      <point x="588" y="189" type="line"/>
    </contour>
    <contour>
      <point x="585" y="700" type="line"/>
      <point x="683" y="700" type="line"/>
      <point x="390" y="0" type="line"/>
      <point x="292" y="0" type="line"/>
      <point x="387" y="226" type="line" smooth="yes"/>
      <point x="399" y="248" type="line" smooth="yes"/>
      <point x="487" y="460" type="line" smooth="yes"/>
      <point x="494" y="482" type="line" smooth="yes"/>
    </contour>
    <contour>
      <point x="363" y="700" type="line"/>
      <point x="461" y="700" type="line"/>
      <point x="370" y="484" type="line" smooth="yes"/>
      <point x="358" y="462" type="line" smooth="yes"/>
      <point x="269" y="247" type="line" smooth="yes"/>
      <point x="262" y="226" type="line" smooth="yes"/>
      <point x="168" y="0" type="line"/>
      <point x="70" y="0" type="line"/>
    </contour>
  </outline>
</glyph>
<glyph name="dollar" format="1">
  <advance width="596"/>
  <unicode hex="0024"/>
  <outline>
    <contour>
      <point x="404" y="818" type="line"/>
      <point x="498" y="818" type="line"/>
      <point x="468" y="656" type="line"/>
      <point x="379" y="656" type="line"/>
    </contour>
    <contour>
      <point x="273" y="54" type="line"/>
      <point x="362" y="54" type="line"/>
      <point x="334" y="-112" type="line"/>
      <point x="240" y="-112" type="line"/>
    </contour>
    <contour>
      <point x="533" y="504" type="line"/>
      <point x="513" y="562"/>
      <point x="482" y="612"/>
      <point x="415" y="612" type="curve" smooth="yes"/>
      <point x="345" y="612"/>
      <point x="308" y="580"/>
      <point x="299" y="529" type="curve" smooth="yes"/>
      <point x="287" y="460"/>
      <point x="360" y="435"/>
      <point x="439" y="403" type="curve" smooth="yes"/>
      <point x="516" y="373"/>
      <point x="601" y="316"/>
      <point x="579" y="192" type="curve" smooth="yes"/>
      <point x="557" y="68"/>
      <point x="457" y="-10"/>
      <point x="308" y="-10" type="curve" smooth="yes"/>
      <point x="188" y="-10"/>
      <point x="102" y="69"/>
      <point x="77" y="177" type="curve"/>
      <point x="179" y="236" type="line"/>
      <point x="207" y="145"/>
      <point x="249" y="92"/>
      <point x="331" y="92" type="curve" smooth="yes"/>
      <point x="403" y="92"/>
      <point x="443" y="128"/>
      <point x="454" y="188" type="curve" smooth="yes"/>
      <point x="467" y="264"/>
      <point x="398" y="294"/>
      <point x="322" y="324" type="curve" smooth="yes"/>
      <point x="257" y="350"/>
      <point x="155" y="402"/>
      <point x="178" y="532" type="curve" smooth="yes"/>
      <point x="195" y="630"/>
      <point x="303" y="710"/>
      <point x="429" y="710" type="curve" smooth="yes"/>
      <point x="555" y="710"/>
      <point x="614" y="634"/>
      <point x="635" y="561" type="curve"/>
    </contour>
  </outline>
</glyph>
<glyph name="ampersand" format="1">
  <advance width="706"/>
  <unicode hex="0026"/>
  <outline>
    <contour>
      <point x="73" y="185" type="curve"/>
      <point x="188" y="193" type="line"/>
      <point x="177" y="128"/>
      <point x="224" y="84"/>
      <point x="299" y="84" type="curve" smooth="yes"/>
      <point x="421" y="84"/>
      <point x="549" y="198"/>
      <point x="661" y="326" type="curve"/>
      <point x="730" y="272" type="line"/>
      <point x="608" y="137"/>
      <point x="456" y="-11"/>
      <point x="270" y="-11" type="curve" smooth="yes"/>
      <point x="147" y="-11"/>
      <point x="51" y="63"/>
    </contour>
    <contour>
      <point x="218" y="551" type="line"/>
      <point x="234" y="643"/>
      <point x="322" y="714"/>
      <point x="436" y="714" type="curve" smooth="yes"/>
      <point x="551" y="714"/>
      <point x="603" y="636"/>
      <point x="588" y="552" type="curve"/>
      <point x="484" y="546" type="line"/>
      <point x="492" y="589"/>
      <point x="468" y="622"/>
      <point x="419" y="622" type="curve" smooth="yes"/>
      <point x="368" y="622"/>
      <point x="334" y="590"/>
      <point x="326" y="547" type="curve"/>
    </contour>
    <contour>
      <point x="290" y="379" type="line" smooth="yes"/>
      <point x="260" y="423"/>
      <point x="205" y="477"/>
      <point x="218" y="551" type="curve"/>
      <point x="326" y="547" type="line"/>
      <point x="318" y="503"/>
      <point x="355" y="467"/>
      <point x="390" y="415" type="curve" smooth="yes"/>
      <point x="687" y="0" type="line"/>
      <point x="560" y="0" type="line"/>
    </contour>
    <contour>
      <point x="588" y="552" type="line"/>
      <point x="574" y="475"/>
      <point x="508" y="422"/>
      <point x="397" y="360" type="curve" smooth="yes"/>
      <point x="317" y="316"/>
      <point x="204" y="285"/>
      <point x="188" y="193" type="curve"/>
      <point x="73" y="185" type="line"/>
      <point x="100" y="337"/>
      <point x="268" y="382"/>
      <point x="343" y="418" type="curve" smooth="yes"/>
      <point x="425" y="458"/>
      <point x="477" y="504"/>
      <point x="484" y="546" type="curve"/>
    </contour>
  </outline>
</glyph>
<glyph name="quotesingle" format="1">
  <advance width="293"/>
  <unicode hex="0027"/>
  <outline>
    <contour>
      <point x="243" y="700" type="line"/>
      <point x="364" y="700" type="line"/>
      <point x="214" y="392" type="line"/>
      <point x="141" y="392" type="line"/>
    </contour>
  </outline>
</glyph>
<glyph name="parenleft" format="1">
  <advance width="322"/>
  <unicode hex="0028"/>
  <outline>
    <contour>
      <point x="337" y="780" type="curve"/>
      <point x="437" y="780" type="line"/>
      <point x="341" y="630"/>
      <point x="276" y="460"/>
      <point x="246" y="290" type="curve" smooth="yes"/>
      <point x="216" y="120"/>
      <point x="220" y="-50"/>
      <point x="264" y="-200" type="curve"/>
      <point x="164" y="-200" type="line"/>
      <point x="110" y="-50"/>
      <point x="102" y="120"/>
      <point x="132" y="290" type="curve" smooth="yes"/>
      <point x="162" y="460"/>
      <point x="231" y="630"/>
    </contour>
  </outline>
</glyph>
<glyph name="plus" format="1">
  <advance width="638"/>
  <unicode hex="002B"/>
  <outline>
    <contour>
      <point x="102" y="208" type="line"/>
      <point x="120" y="314" type="line"/>
      <point x="629" y="314" type="line"/>
      <point x="611" y="208" type="line"/>
    </contour>
    <contour>
      <point x="353" y="516" type="line"/>
      <point x="467" y="516" type="line"/>
      <point x="377" y="5" type="line"/>
      <point x="263" y="5" type="line"/>
    </contour>
  </outline>
</glyph>
<glyph name="hyphen" format="1">
  <advance width="215"/>
  <unicode hex="002D"/>
  <outline>
    <contour>
      <point x="38" y="189" type="line"/>
      <point x="55" y="286" type="line"/>
      <point x="260" y="286" type="line"/>
      <point x="243" y="189" type="line"/>
    </contour>
  </outline>
</glyph>
<glyph name="slash" format="1">
  <advance width="552"/>
  <unicode hex="002F"/>
  <outline>
    <contour>
      <point x="554" y="700" type="line"/>
      <point x="661" y="700" type="line"/>
      <point x="98" y="-150" type="line"/>
      <point x="-11" y="-150" type="line"/>
    </contour>
  </outline>
</glyph>
<glyph name="two" format="1">
  <advance width="604"/>
  <unicode hex="0032"/>
  <outline>
    <contour>
      <point x="20" y="0" type="line"/>
      <point x="404" y="341" type="line" smooth="yes"/>
      <point x="464" y="395"/>
      <point x="500" y="440"/>
      <point x="510" y="496" type="curve" smooth="yes"/>
      <point x="520" y="550"/>
      <point x="493" y="606"/>
      <point x="417" y="606" type="curve" smooth="yes"/>
      <point x="337" y="606"/>
      <point x="272" y="546"/>
      <point x="255" y="452" type="curve"/>
      <point x="138" y="452" type="line"/>
      <point x="164" y="601"/>
      <point x="278" y="712"/>
      <point x="438" y="712" type="curve" smooth="yes"/>
      <point x="600" y="712"/>
      <point x="651" y="594"/>
      <point x="633" y="494" type="curve" smooth="yes"/>
      <point x="620" y="421"/>
      <point x="570" y="358"/>
      <point x="503" y="304" type="curve" smooth="yes"/>
      <point x="269" y="110" type="line"/>
      <point x="573" y="110" type="line"/>
      <point x="554" y="0" type="line"/>
    </contour>
  </outline>
</glyph>
<glyph name="five" format="1">
  <advance width="596"/>
  <unicode hex="0035"/>
  <outline>
    <contour>
      <point x="596" y="228" type="curve" smooth="yes"/>
      <point x="567" y="66"/>
      <point x="429" y="-11"/>
      <point x="294" y="-11" type="curve" smooth="yes"/>
      <point x="165" y="-11"/>
      <point x="97" y="45"/>
      <point x="55" y="113" type="curve"/>
      <point x="139" y="198" type="line"/>
      <point x="170" y="143"/>
      <point x="232" y="99"/>
      <point x="299" y="99" type="curve" smooth="yes"/>
      <point x="393" y="99"/>
      <point x="456" y="150"/>
      <point x="471" y="235" type="curve" smooth="yes"/>
      <point x="486" y="320"/>
      <point x="428" y="370"/>
      <point x="347" y="370" type="curve" smooth="yes"/>
      <point x="285" y="370"/>
      <point x="229" y="358"/>
      <point x="150" y="314" type="curve"/>
      <point x="240" y="388" type="line"/>
      <point x="297" y="440"/>
      <point x="363" y="461"/>
      <point x="427" y="461" type="curve" smooth="yes"/>
      <point x="543" y="461"/>
      <point x="621" y="370"/>
    </contour>
    <contour>
      <point x="384" y="596" type="line"/>
      <point x="295" y="402" type="line"/>
      <point x="150" y="314" type="line"/>
      <point x="313" y="700" type="line"/>
      <point x="673" y="700" type="line"/>
      <point x="655" y="596" type="line"/>
    </contour>
  </outline>
</glyph>
<glyph name="six" format="1">
  <advance width="613"/>
  <unicode hex="0036"/>
  <outline>
    <contour>
      <point x="208" y="236" type="curve" smooth="yes"/>
      <point x="193" y="150"/>
      <point x="242" y="92"/>
      <point x="323" y="92" type="curve" smooth="yes"/>
      <point x="404" y="92"/>
      <point x="475" y="150"/>
      <point x="490" y="236" type="curve" smooth="yes"/>
      <point x="505" y="322"/>
      <point x="456" y="383"/>
      <point x="375" y="383" type="curve" smooth="yes"/>
      <point x="294" y="383"/>
      <point x="223" y="322"/>
    </contour>
    <contour>
      <point x="454" y="699" type="line"/>
      <point x="604" y="699" type="line"/>
      <point x="334" y="424" type="line"/>
      <point x="316" y="421" type="line"/>
      <point x="353" y="455"/>
      <point x="388" y="464"/>
      <point x="435" y="464" type="curve" smooth="yes"/>
      <point x="545" y="464"/>
      <point x="630" y="370"/>
      <point x="606" y="236" type="curve" smooth="yes"/>
      <point x="579" y="81"/>
      <point x="449" y="-12"/>
      <point x="305" y="-12" type="curve" smooth="yes"/>
      <point x="161" y="-12"/>
      <point x="65" y="81"/>
      <point x="92" y="236" type="curve" smooth="yes"/>
      <point x="103" y="300"/>
      <point x="138" y="356"/>
      <point x="180" y="401" type="curve" smooth="yes"/>
    </contour>
  </outline>
</glyph>
<glyph name="eight" format="1">
  <advance width="578"/>
  <unicode hex="0038"/>
  <outline>
    <contour>
      <point x="173" y="531" type="curve" smooth="yes"/>
      <point x="192" y="637"/>
      <point x="297" y="712"/>
      <point x="415" y="712" type="curve" smooth="yes"/>
      <point x="533" y="712"/>
      <point x="613" y="637"/>
      <point x="594" y="531" type="curve" smooth="yes"/>
      <point x="574" y="415"/>
      <point x="466" y="350"/>
      <point x="351" y="350" type="curve" smooth="yes"/>
      <point x="236" y="350"/>
      <point x="153" y="415"/>
    </contour>
    <contour>
      <point x="282" y="518" type="curve" smooth="yes"/>
      <point x="272" y="460"/>
      <point x="309" y="420"/>
      <point x="363" y="420" type="curve" smooth="yes"/>
      <point x="417" y="420"/>
      <point x="469" y="460"/>
      <point x="479" y="518" type="curve" smooth="yes"/>
      <point x="489" y="576"/>
      <point x="456" y="619"/>
      <point x="398" y="619" type="curve" smooth="yes"/>
      <point x="340" y="619"/>
      <point x="292" y="576"/>
    </contour>
    <contour>
      <point x="88" y="190" type="curve" smooth="yes"/>
      <point x="112" y="326"/>
      <point x="243" y="392"/>
      <point x="358" y="392" type="curve" smooth="yes"/>
      <point x="473" y="392"/>
      <point x="583" y="326"/>
      <point x="559" y="190" type="curve" smooth="yes"/>
      <point x="539" y="74"/>
      <point x="417" y="-12"/>
      <point x="287" y="-12" type="curve" smooth="yes"/>
      <point x="157" y="-12"/>
      <point x="68" y="74"/>
    </contour>
    <contour>
      <point x="206" y="206" type="curve" smooth="yes"/>
      <point x="193" y="130"/>
      <point x="243" y="88"/>
      <point x="305" y="88" type="curve" smooth="yes"/>
      <point x="367" y="88"/>
      <point x="432" y="130"/>
      <point x="445" y="206" type="curve" smooth="yes"/>
      <point x="457" y="272"/>
      <point x="408" y="324"/>
      <point x="346" y="324" type="curve" smooth="yes"/>
      <point x="284" y="324"/>
      <point x="218" y="272"/>
    </contour>
  </outline>
</glyph>
<glyph name="colon" format="1">
  <advance width="309"/>
  <unicode hex="003A"/>
  <outline>
    <contour>
      <point x="93" y="51" type="curve" smooth="yes"/>
      <point x="100" y="89"/>
      <point x="135" y="121"/>
      <point x="175" y="121" type="curve" smooth="yes"/>
      <point x="215" y="121"/>
      <point x="241" y="89"/>
      <point x="234" y="51" type="curve" smooth="yes"/>
      <point x="227" y="13"/>
      <point x="191" y="-19"/>
      <point x="151" y="-19" type="curve" smooth="yes"/>
      <point x="111" y="-19"/>
      <point x="86" y="13"/>
    </contour>
    <contour>
      <point x="160" y="429" type="curve" smooth="yes"/>
      <point x="167" y="467"/>
      <point x="202" y="499"/>
      <point x="242" y="499" type="curve" smooth="yes"/>
      <point x="282" y="499"/>
      <point x="308" y="467"/>
      <point x="301" y="429" type="curve" smooth="yes"/>
      <point x="294" y="391"/>
      <point x="257" y="359"/>
      <point x="217" y="359" type="curve" smooth="yes"/>
      <point x="177" y="359"/>
      <point x="153" y="391"/>
    </contour>
  </outline>
</glyph>
<glyph name="H" format="1">
  <advance width="743"/>
  <unicode hex="0048"/>
  <outline>
    <contour>
      <point x="181" y="321" type="line"/>
      <point x="200" y="430" type="line"/>
      <point x="700" y="430" type="line"/>
      <point x="681" y="321" type="line"/>
    </contour>
    <contour>
      <point x="671" y="700" type="line"/>
      <point x="789" y="700" type="line"/>
      <point x="666" y="0" type="line"/>
      <point x="548" y="0" type="line"/>
    </contour>
    <contour>
      <point x="201" y="700" type="line"/>
      <point x="319" y="700" type="line"/>
      <point x="196" y="0" type="line"/>
      <point x="78" y="0" type="line"/>
    </contour>
  </outline>
</glyph>
<glyph name="O" format="1">
  <advance width="802"/>
  <unicode hex="004F"/>
  <outline>
    <contour>
      <point x="225" y="350" type="curve" smooth="yes"/>
      <point x="200" y="206"/>
      <point x="280" y="101"/>
      <point x="419" y="101" type="curve" smooth="yes"/>
      <point x="558" y="101"/>
      <point x="676" y="206"/>
      <point x="701" y="350" type="curve" smooth="yes"/>
      <point x="726" y="494"/>
      <point x="647" y="599"/>
      <point x="507" y="599" type="curve" smooth="yes"/>
      <point x="368" y="599"/>
      <point x="250" y="494"/>
    </contour>
    <contour>
      <point x="100" y="350" type="curve" smooth="yes"/>
      <point x="137" y="559"/>
      <point x="319" y="712"/>
      <point x="527" y="712" type="curve" smooth="yes"/>
      <point x="736" y="712"/>
      <point x="864" y="559"/>
      <point x="827" y="350" type="curve" smooth="yes"/>
      <point x="790" y="141"/>
      <point x="608" y="-15"/>
      <point x="398" y="-15" type="curve" smooth="yes"/>
      <point x="188" y="-15"/>
      <point x="63" y="141"/>
    </contour>
  </outline>
</glyph>
<glyph name="V" format="1">
  <advance width="690"/>
  <unicode hex="0056"/>
  <outline>
    <contour>
      <point x="382" y="208" type="line"/>
      <point x="674" y="700" type="line"/>
      <point x="811" y="700" type="line"/>
      <point x="338" y="-39" type="line"/>
      <point x="125" y="700" type="line"/>
      <point x="262" y="700" type="line"/>
    </contour>
  </outline>
</glyph>
<glyph name="X" format="1">
  <advance width="607"/>
  <unicode hex="0058"/>
  <outline>
    <contour>
      <point x="564" y="700" type="line"/>
      <point x="708" y="700" type="line"/>
      <point x="437" y="364" type="line"/>
      <point x="600" y="0" type="line"/>
      <point x="456" y="0" type="line"/>
      <point x="353" y="269" type="line"/>
      <point x="151" y="0" type="line"/>
      <point x="8" y="0" type="line"/>
      <point x="304" y="364" type="line"/>
      <point x="155" y="700" type="line"/>
      <point x="299" y="700" type="line"/>
      <point x="389" y="464" type="line"/>
    </contour>
  </outline>
</glyph>
<glyph name="underscore" format="1">
  <advance width="512"/>
  <unicode hex="005F"/>
  <outline>
    <contour>
      <point x="-25" y="-141" type="line"/>
      <point x="-12" y="-70" type="line"/>
      <point x="500" y="-70" type="line"/>
      <point x="487" y="-141" type="line"/>
    </contour>
  </outline>
</glyph>
<glyph name="b" format="1">
  <advance width="588"/>
  <unicode hex="0062"/>
  <outline>
    <contour>
      <point x="312" y="780" type="line"/>
      <point x="174" y="0" type="line"/>
      <point x="65" y="0" type="line"/>
      <point x="203" y="780" type="line"/>
    </contour>
    <contour>
      <point x="596" y="230" type="curve" smooth="yes"/>
      <point x="569" y="78"/>
      <point x="449" y="-10"/>
      <point x="329" y="-10" type="curve" smooth="yes"/>
      <point x="214" y="-10"/>
      <point x="150" y="81"/>
      <point x="176" y="230" type="curve" smooth="yes"/>
      <point x="202" y="379"/>
      <point x="299" y="470"/>
      <point x="414" y="470" type="curve" smooth="yes"/>
      <point x="534" y="470"/>
      <point x="623" y="382"/>
    </contour>
    <contour>
      <point x="484" y="230" type="curve" smooth="yes"/>
      <point x="500" y="322"/>
      <point x="445" y="376"/>
      <point x="370" y="376" type="curve" smooth="yes"/>
      <point x="308" y="376"/>
      <point x="232" y="324"/>
      <point x="215" y="230" type="curve" smooth="yes"/>
      <point x="198" y="136"/>
      <point x="257" y="84"/>
      <point x="319" y="84" type="curve" smooth="yes"/>
      <point x="394" y="84"/>
      <point x="468" y="138"/>
    </contour>
  </outline>
</glyph>
<glyph name="f" format="1">
  <advance width="309"/>
  <unicode hex="0066"/>
  <outline>
    <contour>
      <point x="112" y="460" type="line"/>
      <point x="376" y="460" type="line"/>
      <point x="359" y="365" type="line"/>
      <point x="95" y="365" type="line"/>
    </contour>
    <contour>
      <point x="401" y="664" type="line"/>
      <point x="391" y="685"/>
      <point x="375" y="690"/>
      <point x="358" y="690" type="curve" smooth="yes"/>
      <point x="328" y="690"/>
      <point x="305" y="667"/>
      <point x="295" y="609" type="curve" smooth="yes"/>
      <point x="188" y="0" type="line"/>
      <point x="81" y="0" type="line"/>
      <point x="192" y="630" type="line" smooth="yes"/>
      <point x="211" y="736"/>
      <point x="274" y="792"/>
      <point x="370" y="792" type="curve" smooth="yes"/>
      <point x="423" y="792"/>
      <point x="452" y="768"/>
      <point x="466" y="748" type="curve"/>
    </contour>
  </outline>
</glyph>
<glyph name="j" format="1">
  <advance width="258"/>
  <unicode hex="006A"/>
  <outline>
    <contour>
      <point x="171" y="643" type="curve" smooth="yes"/>
      <point x="178" y="680"/>
      <point x="213" y="709"/>
      <point x="251" y="709" type="curve" smooth="yes"/>
      <point x="289" y="709"/>
      <point x="314" y="680"/>
      <point x="307" y="643" type="curve" smooth="yes"/>
      <point x="300" y="606"/>
      <point x="266" y="577"/>
      <point x="228" y="577" type="curve" smooth="yes"/>
      <point x="190" y="577"/>
      <point x="164" y="606"/>
    </contour>
    <contour>
      <point x="-41" y="-99" type="line"/>
      <point x="-31" y="-120"/>
      <point x="-15" y="-125"/>
      <point x="2" y="-125" type="curve" smooth="yes"/>
      <point x="32" y="-125"/>
      <point x="54" y="-102"/>
      <point x="64" y="-44" type="curve" smooth="yes"/>
      <point x="153" y="460" type="line"/>
      <point x="260" y="460" type="line"/>
      <point x="168" y="-65" type="line" smooth="yes"/>
      <point x="149" y="-171"/>
      <point x="86" y="-228"/>
      <point x="-10" y="-228" type="curve" smooth="yes"/>
      <point x="-63" y="-228"/>
      <point x="-92" y="-203"/>
      <point x="-106" y="-183" type="curve"/>
    </contour>
  </outline>
</glyph>
<glyph name="k" format="1">
  <advance width="495"/>
  <unicode hex="006B"/>
  <outline>
    <contour>
      <point x="203" y="780" type="line"/>
      <point x="309" y="780" type="line"/>
      <point x="171" y="0" type="line"/>
      <point x="65" y="0" type="line"/>
    </contour>
    <contour>
      <point x="421" y="460" type="line"/>
      <point x="553" y="460" type="line"/>
      <point x="322" y="270" type="line"/>
      <point x="492" y="0" type="line"/>
      <point x="361" y="0" type="line"/>
      <point x="190" y="270" type="line"/>
    </contour>
  </outline>
</glyph>
<glyph name="t" format="1">
  <advance width="271"/>
  <unicode hex="0074"/>
  <outline>
    <contour>
      <point x="86" y="460" type="line"/>
      <point x="347" y="460" type="line"/>
      <point x="330" y="365" type="line"/>
      <point x="69" y="365" type="line"/>
    </contour>
    <contour>
      <point x="191" y="620" type="line"/>
      <point x="298" y="620" type="line"/>
      <point x="189" y="0" type="line"/>
      <point x="82" y="0" type="line"/>
    </contour>
  </outline>
</glyph>
<glyph name="x" format="1">
  <advance width="465"/>
  <unicode hex="0078"/>
  <outline>
    <contour>
      <point x="415" y="460" type="line"/>
      <point x="536" y="460" type="line"/>
      <point x="332" y="237" type="line"/>
      <point x="465" y="0" type="line"/>
      <point x="344" y="0" type="line"/>
      <point x="262" y="158" type="line"/>
      <point x="124" y="0" type="line"/>
      <point x="0" y="0" type="line"/>
      <point x="218" y="237" type="line"/>
      <point x="91" y="460" type="line"/>
      <point x="215" y="460" type="line"/>
      <point x="290" y="316" type="line"/>
    </contour>
  </outline>
</glyph>
<glyph name="braceleft" format="1">
  <advance width="346"/>
  <unicode hex="007B"/>
  <outline>
    <contour>
      <point x="326" y="640" type="curve" smooth="yes"/>
      <point x="299" y="490" type="line" smooth="yes"/>
      <point x="283" y="401"/>
      <point x="259" y="280"/>
      <point x="137" y="280" type="curve"/>
      <point x="141" y="300" type="line"/>
      <point x="263" y="300"/>
      <point x="245" y="179"/>
      <point x="229" y="90" type="curve" smooth="yes"/>
      <point x="202" y="-60" type="line" smooth="yes"/>
      <point x="197" y="-86"/>
      <point x="212" y="-110"/>
      <point x="242" y="-110" type="curve" smooth="yes"/>
      <point x="277" y="-110" type="line"/>
      <point x="261" y="-200" type="line"/>
      <point x="189" y="-200" type="line" smooth="yes"/>
      <point x="130" y="-200"/>
      <point x="70" y="-159"/>
      <point x="87" y="-60" type="curve" smooth="yes"/>
      <point x="123" y="140" type="line" smooth="yes"/>
      <point x="136" y="216"/>
      <point x="122" y="240"/>
      <point x="89" y="250" type="curve"/>
      <point x="103" y="330" type="line"/>
      <point x="140" y="340"/>
      <point x="163" y="364"/>
      <point x="176" y="440" type="curve" smooth="yes"/>
      <point x="211" y="640" type="line" smooth="yes"/>
      <point x="228" y="739"/>
      <point x="303" y="780"/>
      <point x="362" y="780" type="curve" smooth="yes"/>
      <point x="434" y="780" type="line"/>
      <point x="418" y="690" type="line"/>
      <point x="383" y="690" type="line" smooth="yes"/>
      <point x="353" y="690"/>
      <point x="331" y="666"/>
    </contour>
  </outline>
</glyph>
<glyph name="bar" format="1">
  <advance width="305"/>
  <unicode hex="007C"/>
  <outline>
    <contour>
      <point x="238" y="785" type="line"/>
      <point x="344" y="785" type="line"/>
      <point x="168" y="-215" type="line"/>
      <point x="62" y="-215" type="line"/>
    </contour>
  </outline>
</glyph>
<glyph name="asciitilde" format="1">
  <advance width="575"/>
  <unicode hex="007E"/>
  <outline>
    <contour>
      <point x="178" y="171" type="curve"/>
      <point x="87" y="176" type="line"/>
      <point x="86" y="183"/>
      <point x="85" y="191"/>
      <point x="87" y="200" type="curve" smooth="yes"/>
      <point x="92" y="226"/>
      <point x="104" y="254"/>
      <point x="129" y="280" type="curve" smooth="yes"/>
      <point x="161" y="315"/>
      <point x="201" y="334"/>
      <point x="253" y="334" type="curve" smooth="yes"/>
      <point x="295" y="334"/>
      <point x="330" y="318"/>
      <point x="368" y="286" type="curve" smooth="yes"/>
      <point x="394" y="264"/>
      <point x="417" y="253"/>
      <point x="435" y="253" type="curve" smooth="yes"/>
      <point x="461" y="253"/>
      <point x="476" y="270"/>
      <point x="481" y="298" type="curve" smooth="yes"/>
      <point x="483" y="307"/>
      <point x="482" y="318"/>
      <point x="480" y="328" type="curve"/>
      <point x="575" y="323" type="line"/>
      <point x="576" y="315"/>
      <point x="576" y="305"/>
      <point x="574" y="295" type="curve" smooth="yes"/>
      <point x="570" y="270"/>
      <point x="561" y="240"/>
      <point x="536" y="214" type="curve" smooth="yes"/>
      <point x="504" y="180"/>
      <point x="469" y="164"/>
      <point x="425" y="164" type="curve" smooth="yes"/>
      <point x="389" y="164"/>
      <point x="356" y="181"/>
      <point x="316" y="213" type="curve" smooth="yes"/>
      <point x="290" y="235"/>
      <point x="262" y="247"/>
      <point x="237" y="247" type="curve" smooth="yes"/>
      <point x="203" y="247"/>
      <point x="183" y="226"/>
      <point x="178" y="196" type="curve" smooth="yes"/>
      <point x="176" y="186"/>
      <point x="176" y="179"/>
    </contour>
  </outline>
</glyph>
<glyph name="cent" format="1">
  <advance width="580"/>
  <unicode hex="00A2"/>
  <outline>
    <contour>
      <point x="269" y="38" type="line"/>
      <point x="352" y="38" type="line"/>
      <point x="329" y="-112" type="line"/>
      <point x="239" y="-112" type="line"/>
    </contour>
    <contour>
      <point x="220" y="230" type="curve" smooth="yes"/>
      <point x="204" y="142"/>
      <point x="258" y="83"/>
      <point x="338" y="83" type="curve" smooth="yes"/>
      <point x="407" y="83"/>
      <point x="471" y="120"/>
      <point x="502" y="162" type="curve"/>
      <point x="480" y="42" type="line"/>
      <point x="442" y="9"/>
      <point x="379" y="-10"/>
      <point x="316" y="-10" type="curve" smooth="yes"/>
      <point x="174" y="-10"/>
      <point x="84" y="88"/>
      <point x="109" y="230" type="curve" smooth="yes"/>
      <point x="134" y="372"/>
      <point x="259" y="470"/>
      <point x="401" y="470" type="curve" smooth="yes"/>
      <point x="464" y="470"/>
      <point x="521" y="450"/>
      <point x="547" y="418" type="curve"/>
      <point x="526" y="298" type="line"/>
      <point x="509" y="340"/>
      <point x="458" y="377"/>
      <point x="389" y="377" type="curve" smooth="yes"/>
      <point x="309" y="377"/>
      <point x="235" y="316"/>
    </contour>
    <contour>
      <point x="361" y="578" type="line"/>
      <point x="451" y="578" type="line"/>
      <point x="420" y="428" type="line"/>
      <point x="337" y="428" type="line"/>
    </contour>
  </outline>
</glyph>
<glyph name="dieresis" format="1">
  <advance width="486"/>
  <unicode hex="00A8"/>
  <outline>
    <contour>
      <point x="395" y="649" type="curve" smooth="yes"/>
      <point x="402" y="687"/>
      <point x="439" y="719"/>
      <point x="479" y="719" type="curve" smooth="yes"/>
      <point x="519" y="719"/>
      <point x="544" y="687"/>
      <point x="537" y="649" type="curve" smooth="yes"/>
      <point x="530" y="611"/>
      <point x="494" y="579"/>
      <point x="454" y="579" type="curve" smooth="yes"/>
      <point x="414" y="579"/>
      <point x="388" y="611"/>
    </contour>
    <contour>
      <point x="178" y="649" type="curve" smooth="yes"/>
      <point x="185" y="687"/>
      <point x="221" y="719"/>
      <point x="261" y="719" type="curve" smooth="yes"/>
      <point x="301" y="719"/>
      <point x="326" y="687"/>
      <point x="319" y="649" type="curve" smooth="yes"/>
      <point x="312" y="611"/>
      <point x="276" y="579"/>
      <point x="236" y="579" type="curve" smooth="yes"/>
      <point x="196" y="579"/>
      <point x="171" y="611"/>
    </contour>
  </outline>
</glyph>
<glyph name="uni00B3" format="1">
  <advance width="333"/>
  <unicode hex="00B3"/>
  <outline>
    <contour>
      <point x="232" y="486" type="curve"/>
      <point x="238" y="524" type="line"/>
      <point x="289" y="524"/>
      <point x="326" y="554"/>
      <point x="332" y="590" type="curve" smooth="yes"/>
      <point x="338" y="624"/>
      <point x="323" y="647"/>
      <point x="285" y="647" type="curve" smooth="yes"/>
      <point x="249" y="647"/>
      <point x="217" y="622"/>
      <point x="211" y="588" type="curve"/>
      <point x="144" y="588" type="line"/>
      <point x="156" y="657"/>
      <point x="219" y="707"/>
      <point x="296" y="707" type="curve" smooth="yes"/>
      <point x="377" y="707"/>
      <point x="416" y="654"/>
      <point x="405" y="593" type="curve" smooth="yes"/>
      <point x="394" y="529"/>
      <point x="320" y="486"/>
    </contour>
    <contour>
      <point x="215" y="272" type="curve" smooth="yes"/>
      <point x="126" y="272"/>
      <point x="81" y="331"/>
      <point x="93" y="400" type="curve"/>
      <point x="165" y="400" type="line"/>
      <point x="158" y="359"/>
      <point x="185" y="334"/>
      <point x="228" y="334" type="curve" smooth="yes"/>
      <point x="271" y="334"/>
      <point x="304" y="358"/>
      <point x="311" y="400" type="curve" smooth="yes"/>
      <point x="319" y="445"/>
      <point x="286" y="470"/>
      <point x="229" y="470" type="curve"/>
      <point x="236" y="511" type="line"/>
      <point x="329" y="511"/>
      <point x="396" y="476"/>
      <point x="381" y="392" type="curve" smooth="yes"/>
      <point x="368" y="320"/>
      <point x="301" y="272"/>
    </contour>
  </outline>
</glyph>
<glyph name="Aacute" format="1">
  <advance width="690"/>
  <unicode hex="00C1"/>
  <outline>
    <contour>
      <point x="194" y="180" type="line"/>
      <point x="233" y="280" type="line"/>
      <point x="559" y="280" type="line"/>
      <point x="564" y="180" type="line"/>
    </contour>
    <contour>
      <point x="434" y="502" type="line"/>
      <point x="278" y="245" type="line"/>
      <point x="272" y="219" type="line"/>
      <point x="136" y="0" type="line"/>
      <point x="2" y="0" type="line"/>
      <point x="475" y="739" type="line"/>
      <point x="688" y="0" type="line"/>
      <point x="554" y="0" type="line"/>
      <point x="497" y="213" type="line"/>
      <point x="499" y="242" type="line"/>
    </contour>
    <contour>
      <point x="653" y="949" type="line"/>
      <point x="447" y="799" type="line"/>
      <point x="392" y="834" type="line"/>
      <point x="570" y="994" type="line"/>
    </contour>
  </outline>
</glyph>
<glyph name="AE" format="1">
  <advance width="1010"/>
  <unicode hex="00C6"/>
  <outline>
    <contour>
      <point x="271" y="186" type="line"/>
      <point x="293" y="296" type="line"/>
      <point x="593" y="296" type="line"/>
      <point x="574" y="186" type="line"/>
    </contour>
    <contour>
      <point x="559" y="700" type="line"/>
      <point x="659" y="660" type="line"/>
      <point x="151" y="0" type="line"/>
      <point x="9" y="0" type="line"/>
    </contour>
    <contour>
      <point x="574" y="0" type="line"/>
      <point x="592" y="104" type="line"/>
      <point x="958" y="104" type="line"/>
      <point x="940" y="0" type="line"/>
    </contour>
    <contour>
      <point x="687" y="596" type="line"/>
      <point x="559" y="700" type="line"/>
      <point x="1063" y="700" type="line"/>
      <point x="1045" y="596" type="line"/>
    </contour>
    <contour>
      <point x="631" y="324" type="line"/>
      <point x="649" y="426" type="line"/>
      <point x="995" y="426" type="line"/>
      <point x="977" y="324" type="line"/>
    </contour>
    <contour>
      <point x="637" y="700" type="line"/>
      <point x="761" y="700" type="line"/>
      <point x="638" y="0" type="line"/>
      <point x="514" y="0" type="line"/>
    </contour>
  </outline>
</glyph>
<glyph name="Iacute" format="1">
  <advance width="275"/>
  <unicode hex="00CD"/>
  <outline>
    <contour>
      <point x="201" y="700" type="line"/>
      <point x="321" y="700" type="line"/>
      <point x="198" y="0" type="line"/>
      <point x="78" y="0" type="line"/>
    </contour>
    <contour>
      <point x="439" y="925" type="line"/>
      <point x="233" y="775" type="line"/>
      <point x="179" y="810" type="line"/>
      <point x="357" y="970" type="line"/>
    </contour>
  </outline>
</glyph>
<glyph name="Ntilde" format="1">
  <advance width="782"/>
  <unicode hex="00D1"/>
  <outline>
    <contour>
      <point x="183" y="572" type="line"/>
      <point x="208" y="735" type="line"/>
      <point x="723" y="128" type="line"/>
      <point x="699" y="-35" type="line"/>
    </contour>
    <contour>
      <point x="712" y="700" type="line"/>
      <point x="828" y="700" type="line"/>
      <point x="699" y="-35" type="line"/>
      <point x="608" y="105" type="line"/>
    </contour>
    <contour>
      <point x="208" y="735" type="line"/>
      <point x="299" y="595" type="line"/>
      <point x="194" y="0" type="line"/>
      <point x="78" y="0" type="line"/>
    </contour>
    <contour>
      <point x="368" y="811" type="line"/>
      <point x="387" y="860"/>
      <point x="441" y="893"/>
      <point x="486" y="893" type="curve" smooth="yes"/>
      <point x="551" y="893"/>
      <point x="548" y="846"/>
      <point x="602" y="846" type="curve" smooth="yes"/>
      <point x="621" y="846"/>
      <point x="641" y="862"/>
      <point x="667" y="894" type="curve"/>
      <point x="705" y="851" type="line"/>
      <point x="682" y="814"/>
      <point x="636" y="778"/>
      <point x="586" y="778" type="curve" smooth="yes"/>
      <point x="531" y="778"/>
      <point x="518" y="825"/>
      <point x="473" y="825" type="curve" smooth="yes"/>
      <point x="432" y="825"/>
      <point x="417" y="789"/>
      <point x="414" y="774" type="curve"/>
    </contour>
  </outline>
</glyph>
<glyph name="Ocircumflex" format="1">
  <advance width="802"/>
  <unicode hex="00D4"/>
  <outline>
    <contour>
      <point x="225" y="350" type="curve" smooth="yes"/>
      <point x="200" y="206"/>
      <point x="280" y="101"/>
      <point x="419" y="101" type="curve" smooth="yes"/>
      <point x="558" y="101"/>
      <point x="676" y="206"/>
      <point x="701" y="350" type="curve" smooth="yes"/>
      <point x="726" y="494"/>
      <point x="647" y="599"/>
      <point x="507" y="599" type="curve" smooth="yes"/>
      <point x="368" y="599"/>
      <point x="250" y="494"/>
    </contour>
    <contour>
      <point x="100" y="350" type="curve" smooth="yes"/>
      <point x="137" y="559"/>
      <point x="319" y="712"/>
      <point x="527" y="712" type="curve" smooth="yes"/>
      <point x="736" y="712"/>
      <point x="864" y="559"/>
      <point x="827" y="350" type="curve" smooth="yes"/>
      <point x="790" y="141"/>
      <point x="608" y="-15"/>
      <point x="398" y="-15" type="curve" smooth="yes"/>
      <point x="188" y="-15"/>
      <point x="63" y="141"/>
    </contour>
    <contour>
      <point x="559" y="872" type="line"/>
      <point x="432" y="778" type="line"/>
      <point x="389" y="818" type="line"/>
      <point x="574" y="958" type="line"/>
      <point x="709" y="818" type="line"/>
      <point x="652" y="778" type="line"/>
    </contour>
  </outline>
</glyph>
<glyph name="multiply" format="1">
  <advance width="596"/>
  <unicode hex="00D7"/>
  <outline>
    <contour>
      <point x="130" y="14" type="line"/>
      <point x="73" y="86" type="line"/>
      <point x="277" y="255" type="line"/>
      <point x="133" y="424" type="line"/>
      <point x="215" y="496" type="line"/>
      <point x="355" y="321" type="line"/>
      <point x="555" y="496" type="line"/>
      <point x="613" y="424" type="line"/>
      <point x="409" y="255" type="line"/>
      <point x="553" y="86" type="line"/>
      <point x="470" y="14" type="line"/>
      <point x="331" y="189" type="line"/>
    </contour>
  </outline>
</glyph>
<glyph name="Udieresis" format="1">
  <advance width="656"/>
  <unicode hex="00DC"/>
  <outline>
    <contour>
      <point x="195" y="700" type="line"/>
      <point x="314" y="700" type="line"/>
      <point x="232" y="235" type="line" smooth="yes"/>
      <point x="217" y="149"/>
      <point x="254" y="91"/>
      <point x="344" y="91" type="curve" smooth="yes"/>
      <point x="434" y="91"/>
      <point x="491" y="149"/>
      <point x="506" y="235" type="curve" smooth="yes"/>
      <point x="588" y="700" type="line"/>
      <point x="707" y="700" type="line"/>
      <point x="625" y="230" type="line" smooth="yes"/>
      <point x="598" y="76"/>
      <point x="475" y="-18"/>
      <point x="325" y="-18" type="curve" smooth="yes"/>
      <point x="175" y="-18"/>
      <point x="86" y="76"/>
      <point x="113" y="230" type="curve" smooth="yes"/>
    </contour>
    <contour>
      <point x="519" y="842" type="curve" smooth="yes"/>
      <point x="526" y="880"/>
      <point x="563" y="912"/>
      <point x="603" y="912" type="curve" smooth="yes"/>
      <point x="643" y="912"/>
      <point x="668" y="880"/>
      <point x="661" y="842" type="curve" smooth="yes"/>
      <point x="654" y="804"/>
      <point x="618" y="772"/>
      <point x="578" y="772" type="curve" smooth="yes"/>
      <point x="538" y="772"/>
      <point x="512" y="804"/>
    </contour>
    <contour>
      <point x="291" y="842" type="curve" smooth="yes"/>
      <point x="298" y="880"/>
      <point x="335" y="912"/>
      <point x="375" y="912" type="curve" smooth="yes"/>
      <point x="415" y="912"/>
      <point x="440" y="880"/>
      <point x="433" y="842" type="curve" smooth="yes"/>
      <point x="426" y="804"/>
      <point x="390" y="772"/>
      <point x="350" y="772" type="curve" smooth="yes"/>
      <point x="310" y="772"/>
      <point x="284" y="804"/>
    </contour>
  </outline>
</glyph>
<glyph name="germandbls" format="1">
  <advance width="578"/>
  <unicode hex="00DF"/>
  <outline>
    <contour>
      <point x="177" y="606" type="line"/>
      <point x="281" y="598" type="line"/>
      <point x="176" y="0" type="line"/>
      <point x="70" y="0" type="line"/>
    </contour>
    <contour>
      <point x="332" y="420" type="curve"/>
      <point x="344" y="490" type="line"/>
      <point x="444" y="490"/>
      <point x="488" y="540"/>
      <point x="497" y="591" type="curve" smooth="yes"/>
      <point x="507" y="649"/>
      <point x="481" y="692"/>
      <point x="403" y="692" type="curve" smooth="yes"/>
      <point x="345" y="692"/>
      <point x="292" y="662"/>
      <point x="281" y="598" type="curve"/>
      <point x="177" y="606" type="line"/>
      <point x="197" y="720"/>
      <point x="309" y="792"/>
      <point x="421" y="792" type="curve" smooth="yes"/>
      <point x="563" y="792"/>
      <point x="626" y="715"/>
      <point x="607" y="606" type="curve" smooth="yes"/>
      <point x="586" y="487"/>
      <point x="492" y="420"/>
    </contour>
    <contour>
      <point x="292" y="90" type="line"/>
      <point x="372" y="90"/>
      <point x="459" y="148"/>
      <point x="476" y="242" type="curve" smooth="yes"/>
      <point x="489" y="318"/>
      <point x="437" y="390"/>
      <point x="327" y="390" type="curve"/>
      <point x="340" y="465" type="line"/>
      <point x="500" y="465"/>
      <point x="607" y="369"/>
      <point x="582" y="225" type="curve" smooth="yes"/>
      <point x="557" y="81"/>
      <point x="424" y="-10"/>
      <point x="274" y="-10" type="curve"/>
    </contour>
  </outline>
</glyph>
<glyph name="adieresis" format="1">
  <advance width="508"/>
  <unicode hex="00E4"/>
  <outline>
    <contour>
      <point x="161" y="136" type="curve" smooth="yes"/>
      <point x="153" y="93"/>
      <point x="181" y="72"/>
      <point x="235" y="72" type="curve" smooth="yes"/>
      <point x="305" y="72"/>
      <point x="363" y="101"/>
      <point x="377" y="182" type="curve"/>
      <point x="384" y="130" type="line"/>
      <point x="368" y="41"/>
      <point x="282" y="-10"/>
      <point x="187" y="-10" type="curve" smooth="yes"/>
      <point x="89" y="-10"/>
      <point x="35" y="41"/>
      <point x="50" y="126" type="curve" smooth="yes"/>
      <point x="68" y="228"/>
      <point x="161" y="283"/>
      <point x="275" y="283" type="curve" smooth="yes"/>
      <point x="355" y="283"/>
      <point x="405" y="246"/>
      <point x="418" y="227" type="curve"/>
      <point x="408" y="170" type="line"/>
      <point x="372" y="200"/>
      <point x="335" y="214"/>
      <point x="279" y="214" type="curve" smooth="yes"/>
      <point x="210" y="214"/>
      <point x="169" y="184"/>
    </contour>
    <contour>
      <point x="174" y="338" type="curve"/>
      <point x="143" y="416" type="line"/>
      <point x="189" y="441"/>
      <point x="259" y="471"/>
      <point x="342" y="471" type="curve" smooth="yes"/>
      <point x="454" y="471"/>
      <point x="525" y="420"/>
      <point x="509" y="328" type="curve" smooth="yes"/>
      <point x="451" y="0" type="line"/>
      <point x="345" y="0" type="line"/>
      <point x="401" y="316" type="line" smooth="yes"/>
      <point x="409" y="359"/>
      <point x="372" y="383"/>
      <point x="322" y="383" type="curve" smooth="yes"/>
      <point x="256" y="383"/>
      <point x="199" y="353"/>
    </contour>
    <contour>
      <point x="403" y="601" type="curve" smooth="yes"/>
      <point x="410" y="639"/>
      <point x="446" y="671"/>
      <point x="486" y="671" type="curve" smooth="yes"/>
      <point x="526" y="671"/>
      <point x="552" y="639"/>
      <point x="545" y="601" type="curve" smooth="yes"/>
      <point x="538" y="563"/>
      <point x="502" y="531"/>
      <point x="462" y="531" type="curve" smooth="yes"/>
      <point x="422" y="531"/>
      <point x="396" y="563"/>
    </contour>
    <contour>
      <point x="186" y="601" type="curve" smooth="yes"/>
      <point x="193" y="639"/>
      <point x="228" y="671"/>
      <point x="268" y="671" type="curve" smooth="yes"/>
      <point x="308" y="671"/>
      <point x="334" y="639"/>
      <point x="327" y="601" type="curve" smooth="yes"/>
      <point x="320" y="563"/>
      <point x="284" y="531"/>
      <point x="244" y="531" type="curve" smooth="yes"/>
      <point x="204" y="531"/>
      <point x="179" y="563"/>
    </contour>
  </outline>
</glyph>
<glyph name="edieresis" format="1">
  <advance width="538"/>
  <unicode hex="00EB"/>
  <outline>
    <contour>
      <point x="132" y="205" type="line"/>
      <point x="145" y="280" type="line"/>
      <point x="533" y="280" type="line"/>
      <point x="538" y="205" type="line"/>
    </contour>
    <contour>
      <point x="433" y="248" type="line" smooth="yes"/>
      <point x="448" y="332"/>
      <point x="421" y="388"/>
      <point x="341" y="388" type="curve" smooth="yes"/>
      <point x="269" y="388"/>
      <point x="205" y="339"/>
      <point x="191" y="258" type="curve"/>
      <point x="185" y="230" type="line"/>
      <point x="167" y="129"/>
      <point x="210" y="79"/>
      <point x="288" y="79" type="curve" smooth="yes"/>
      <point x="350" y="79"/>
      <point x="398" y="107"/>
      <point x="433" y="152" type="curve"/>
      <point x="520" y="114" type="line"/>
      <point x="461" y="39"/>
      <point x="391" y="-10"/>
      <point x="267" y="-10" type="curve" smooth="yes"/>
      <point x="125" y="-10"/>
      <point x="50" y="91"/>
      <point x="75" y="230" type="curve" smooth="yes"/>
      <point x="78" y="247"/>
      <point x="81" y="263"/>
      <point x="87" y="279" type="curve" smooth="yes"/>
      <point x="126" y="392"/>
      <point x="225" y="470"/>
      <point x="357" y="470" type="curve" smooth="yes"/>
      <point x="499" y="470"/>
      <point x="571" y="380"/>
      <point x="545" y="235" type="curve" smooth="yes"/>
      <point x="544" y="227"/>
      <point x="541" y="216"/>
      <point x="538" y="205" type="curve"/>
      <point x="429" y="225" type="line"/>
    </contour>
    <contour>
      <point x="418" y="600" type="curve" smooth="yes"/>
      <point x="425" y="638"/>
      <point x="461" y="670"/>
      <point x="501" y="670" type="curve" smooth="yes"/>
      <point x="541" y="670"/>
      <point x="567" y="638"/>
      <point x="560" y="600" type="curve" smooth="yes"/>
      <point x="553" y="562"/>
      <point x="516" y="530"/>
      <point x="476" y="530" type="curve" smooth="yes"/>
      <point x="436" y="530"/>
      <point x="411" y="562"/>
    </contour>
    <contour>
      <point x="201" y="600" type="curve" smooth="yes"/>
      <point x="208" y="638"/>
      <point x="244" y="670"/>
      <point x="284" y="670" type="curve" smooth="yes"/>
      <point x="324" y="670"/>
      <point x="349" y="638"/>
      <point x="342" y="600" type="curve" smooth="yes"/>
      <point x="335" y="562"/>
      <point x="299" y="530"/>
      <point x="259" y="530" type="curve" smooth="yes"/>
      <point x="219" y="530"/>
      <point x="194" y="562"/>
    </contour>
  </outline>
</glyph>
<glyph name="ntilde" format="1">
  <advance width="545"/>
  <unicode hex="00F1"/>
  <outline>
    <contour>
      <point x="259" y="460" type="line"/>
      <point x="178" y="0" type="line"/>
      <point x="69" y="0" type="line"/>
      <point x="150" y="460" type="line"/>
    </contour>
    <contour>
      <point x="414" y="280" type="line" smooth="yes"/>
      <point x="426" y="347"/>
      <point x="407" y="383"/>
      <point x="348" y="383" type="curve" smooth="yes"/>
      <point x="287" y="383"/>
      <point x="238" y="341"/>
      <point x="227" y="280" type="curve"/>
      <point x="193" y="278" type="line"/>
      <point x="212" y="387"/>
      <point x="297" y="470"/>
      <point x="399" y="470" type="curve" smooth="yes"/>
      <point x="501" y="470"/>
      <point x="547" y="408"/>
      <point x="527" y="292" type="curve" smooth="yes"/>
      <point x="476" y="0" type="line"/>
      <point x="365" y="0" type="line"/>
    </contour>
    <contour>
      <point x="198" y="579" type="line"/>
      <point x="217" y="628"/>
      <point x="271" y="666"/>
      <point x="323" y="666" type="curve" smooth="yes"/>
      <point x="389" y="666"/>
      <point x="388" y="617"/>
      <point x="443" y="617" type="curve" smooth="yes"/>
      <point x="465" y="617"/>
      <point x="486" y="635"/>
      <point x="512" y="667" type="curve"/>
      <point x="558" y="611" type="line"/>
      <point x="535" y="574"/>
      <point x="482" y="533"/>
      <point x="427" y="533" type="curve" smooth="yes"/>
      <point x="372" y="533"/>
      <point x="355" y="583"/>
      <point x="308" y="583" type="curve" smooth="yes"/>
      <point x="268" y="583"/>
      <point x="253" y="547"/>
      <point x="250" y="532" type="curve"/>
    </contour>
  </outline>
</glyph>
<glyph name="gdotaccent" format="1">
  <advance width="586"/>
  <unicode hex="0121"/>
  <outline>
    <contour>
      <point x="495" y="232" type="curve"/>
      <point x="456" y="232" type="line"/>
      <point x="473" y="326"/>
      <point x="412" y="376"/>
      <point x="350" y="376" type="curve" smooth="yes"/>
      <point x="275" y="376"/>
      <point x="203" y="324"/>
      <point x="187" y="232" type="curve"/>
      <point x="75" y="232" type="line"/>
      <point x="102" y="384"/>
      <point x="221" y="470"/>
      <point x="341" y="470" type="curve" smooth="yes"/>
      <point x="456" y="470"/>
      <point x="521" y="381"/>
    </contour>
    <contour>
      <point x="456" y="232" type="curve"/>
      <point x="495" y="232" type="line"/>
      <point x="469" y="83"/>
      <point x="372" y="-5"/>
      <point x="257" y="-5" type="curve" smooth="yes"/>
      <point x="137" y="-5"/>
      <point x="48" y="80"/>
      <point x="75" y="232" type="curve"/>
      <point x="187" y="232" type="line"/>
      <point x="171" y="140"/>
      <point x="225" y="89"/>
      <point x="300" y="89" type="curve" smooth="yes"/>
      <point x="362" y="89"/>
      <point x="439" y="138"/>
    </contour>
    <contour>
      <point x="38" y="-31" type="curve"/>
      <point x="145" y="-31" type="line"/>
      <point x="136" y="-93"/>
      <point x="177" y="-140"/>
      <point x="255" y="-140" type="curve" smooth="yes"/>
      <point x="323" y="-140"/>
      <point x="399" y="-94"/>
      <point x="417" y="10" type="curve" smooth="yes"/>
      <point x="496" y="460" type="line"/>
      <point x="602" y="460" type="line"/>
      <point x="523" y="10" type="line" smooth="yes"/>
      <point x="494" y="-156"/>
      <point x="367" y="-234"/>
      <point x="242" y="-234" type="curve" smooth="yes"/>
      <point x="92" y="-234"/>
      <point x="21" y="-151"/>
    </contour>
    <contour>
      <point x="316" y="600" type="curve" smooth="yes"/>
      <point x="323" y="638"/>
      <point x="358" y="670"/>
      <point x="398" y="670" type="curve" smooth="yes"/>
      <point x="438" y="670"/>
      <point x="464" y="638"/>
      <point x="457" y="600" type="curve" smooth="yes"/>
      <point x="450" y="562"/>
      <point x="413" y="530"/>
      <point x="373" y="530" type="curve" smooth="yes"/>
      <point x="333" y="530"/>
      <point x="309" y="562"/>
    </contour>
  </outline>
</glyph>
<glyph name="Hcircumflex" format="1">
  <advance width="743"/>
  <unicode hex="0124"/>
  <outline>
    <contour>
      <point x="181" y="321" type="line"/>
      <point x="200" y="430" type="line"/>
      <point x="700" y="430" type="line"/>
      <point x="681" y="321" type="line"/>
    </contour>
    <contour>
      <point x="671" y="700" type="line"/>
      <point x="789" y="700" type="line"/>
      <point x="666" y="0" type="line"/>
      <point x="548" y="0" type="line"/>
    </contour>
    <contour>
      <point x="201" y="700" type="line"/>
      <point x="319" y="700" type="line"/>
      <point x="196" y="0" type="line"/>
      <point x="78" y="0" type="line"/>
    </contour>
    <contour>
      <point x="524" y="864" type="line"/>
      <point x="406" y="772" type="line"/>
      <point x="342" y="825" type="line"/>
      <point x="542" y="965" type="line"/>
      <point x="692" y="825" type="line"/>
      <point x="611" y="772" type="line"/>
    </contour>
  </outline>
</glyph>
<glyph name="Itilde" format="1">
  <advance width="275"/>
  <unicode hex="0128"/>
  <outline>
    <contour>
      <point x="201" y="700" type="line"/>
      <point x="321" y="700" type="line"/>
      <point x="198" y="0" type="line"/>
      <point x="78" y="0" type="line"/>
    </contour>
    <contour>
      <point x="105" y="821" type="line"/>
      <point x="124" y="870"/>
      <point x="178" y="908"/>
      <point x="230" y="908" type="curve" smooth="yes"/>
      <point x="296" y="908"/>
      <point x="296" y="859"/>
      <point x="351" y="859" type="curve" smooth="yes"/>
      <point x="373" y="859"/>
      <point x="394" y="877"/>
      <point x="420" y="909" type="curve"/>
      <point x="467" y="854" type="line"/>
      <point x="444" y="817"/>
      <point x="390" y="776"/>
      <point x="335" y="776" type="curve" smooth="yes"/>
      <point x="280" y="776"/>
      <point x="262" y="825"/>
      <point x="215" y="825" type="curve" smooth="yes"/>
      <point x="175" y="825"/>
      <point x="160" y="789"/>
      <point x="157" y="774" type="curve"/>
    </contour>
  </outline>
</glyph>
<glyph name="Ibreve" format="1">
  <advance width="275"/>
  <unicode hex="012C"/>
  <outline>
    <contour>
      <point x="201" y="700" type="line"/>
      <point x="321" y="700" type="line"/>
      <point x="198" y="0" type="line"/>
      <point x="78" y="0" type="line"/>
    </contour>
    <contour>
      <point x="138" y="915" type="curve"/>
      <point x="221" y="915" type="line"/>
      <point x="216" y="885"/>
      <point x="229" y="846"/>
      <point x="287" y="846" type="curve" smooth="yes"/>
      <point x="345" y="846"/>
      <point x="372" y="885"/>
      <point x="377" y="915" type="curve"/>
      <point x="459" y="915" type="line"/>
      <point x="446" y="841"/>
      <point x="379" y="772"/>
      <point x="274" y="772" type="curve" smooth="yes"/>
      <point x="169" y="772"/>
      <point x="125" y="841"/>
    </contour>
  </outline>
</glyph>
<glyph name="ibreve" format="1">
  <advance width="266"/>
  <unicode hex="012D"/>
  <outline>
    <contour>
      <point x="161" y="460" type="line"/>
      <point x="267" y="460" type="line"/>
      <point x="186" y="0" type="line"/>
      <point x="80" y="0" type="line"/>
    </contour>
    <contour>
      <point x="91" y="673" type="curve"/>
      <point x="174" y="673" type="line"/>
      <point x="169" y="643"/>
      <point x="182" y="604"/>
      <point x="240" y="604" type="curve" smooth="yes"/>
      <point x="298" y="604"/>
      <point x="325" y="643"/>
      <point x="330" y="673" type="curve"/>
      <point x="413" y="673" type="line"/>
      <point x="400" y="599"/>
      <point x="331" y="530"/>
      <point x="226" y="530" type="curve" smooth="yes"/>
      <point x="121" y="530"/>
      <point x="78" y="599"/>
    </contour>
  </outline>
</glyph>
<glyph name="Idotaccent" format="1">
  <advance width="275"/>
  <unicode hex="0130"/>
  <outline>
    <contour>
      <point x="201" y="700" type="line"/>
      <point x="321" y="700" type="line"/>
      <point x="198" y="0" type="line"/>
      <point x="78" y="0" type="line"/>
    </contour>
    <contour>
      <point x="214" y="842" type="curve" smooth="yes"/>
      <point x="221" y="880"/>
      <point x="258" y="912"/>
      <point x="298" y="912" type="curve" smooth="yes"/>
      <point x="338" y="912"/>
      <point x="363" y="880"/>
      <point x="356" y="842" type="curve" smooth="yes"/>
      <point x="349" y="804"/>
      <point x="313" y="772"/>
      <point x="273" y="772" type="curve" smooth="yes"/>
      <point x="233" y="772"/>
      <point x="207" y="804"/>
    </contour>
  </outline>
</glyph>
<glyph name="ij" format="1">
  <advance width="524"/>
  <unicode hex="0133"/>
  <outline>
    <contour>
      <point x="435" y="643" type="curve" smooth="yes"/>
      <point x="442" y="680"/>
      <point x="478" y="709"/>
      <point x="516" y="709" type="curve" smooth="yes"/>
      <point x="554" y="709"/>
      <point x="579" y="680"/>
      <point x="572" y="643" type="curve" smooth="yes"/>
      <point x="565" y="606"/>
      <point x="531" y="577"/>
      <point x="493" y="577" type="curve" smooth="yes"/>
      <point x="455" y="577"/>
      <point x="428" y="606"/>
    </contour>
    <contour>
      <point x="225" y="-99" type="line"/>
      <point x="235" y="-120"/>
      <point x="251" y="-125"/>
      <point x="268" y="-125" type="curve" smooth="yes"/>
      <point x="298" y="-125"/>
      <point x="320" y="-102"/>
      <point x="330" y="-44" type="curve" smooth="yes"/>
      <point x="419" y="460" type="line"/>
      <point x="525" y="460" type="line"/>
      <point x="433" y="-65" type="line" smooth="yes"/>
      <point x="414" y="-171"/>
      <point x="350" y="-228"/>
      <point x="254" y="-228" type="curve" smooth="yes"/>
      <point x="201" y="-228"/>
      <point x="173" y="-203"/>
      <point x="159" y="-183" type="curve"/>
    </contour>
    <contour>
      <point x="178" y="643" type="curve" smooth="yes"/>
      <point x="185" y="680"/>
      <point x="220" y="709"/>
      <point x="258" y="709" type="curve" smooth="yes"/>
      <point x="296" y="709"/>
      <point x="322" y="680"/>
      <point x="315" y="643" type="curve" smooth="yes"/>
      <point x="308" y="606"/>
      <point x="273" y="577"/>
      <point x="235" y="577" type="curve" smooth="yes"/>
      <point x="197" y="577"/>
      <point x="171" y="606"/>
    </contour>
    <contour>
      <point x="161" y="460" type="line"/>
      <point x="267" y="460" type="line"/>
      <point x="186" y="0" type="line"/>
      <point x="80" y="0" type="line"/>
    </contour>
  </outline>
</glyph>
<glyph name="uni0136" format="1">
  <advance width="619"/>
  <unicode hex="0136"/>
  <outline>
    <contour>
      <point x="201" y="700" type="line"/>
      <point x="322" y="700" type="line"/>
      <point x="199" y="0" type="line"/>
      <point x="78" y="0" type="line"/>
    </contour>
    <contour>
      <point x="582" y="700" type="line"/>
      <point x="725" y="700" type="line"/>
      <point x="372" y="372" type="line"/>
      <point x="616" y="0" type="line"/>
      <point x="471" y="0" type="line"/>
      <point x="229" y="369" type="line"/>
    </contour>
    <contour>
      <point x="315" y="-60" type="line"/>
      <point x="420" y="-91" type="line"/>
      <point x="259" y="-341" type="line"/>
      <point x="182" y="-319" type="line"/>
    </contour>
  </outline>
</glyph>
<glyph name="lcaron" format="1">
  <advance width="246"/>
  <unicode hex="013E"/>
  <outline>
    <contour>
      <point x="207" y="780" type="line"/>
      <point x="316" y="780" type="line"/>
      <point x="178" y="0" type="line"/>
      <point x="69" y="0" type="line"/>
    </contour>
    <contour>
      <point x="454" y="780" type="line"/>
      <point x="556" y="749" type="line"/>
      <point x="396" y="499" type="line"/>
      <point x="320" y="521" type="line"/>
    </contour>
  </outline>
</glyph>
<glyph name="Obreve" format="1">
  <advance width="802"/>
  <unicode hex="014E"/>
  <outline>
    <contour>
      <point x="225" y="350" type="curve" smooth="yes"/>
      <point x="200" y="206"/>
      <point x="280" y="101"/>
      <point x="419" y="101" type="curve" smooth="yes"/>
      <point x="558" y="101"/>
      <point x="676" y="206"/>
      <point x="701" y="350" type="curve" smooth="yes"/>
      <point x="726" y="494"/>
      <point x="647" y="599"/>
      <point x="507" y="599" type="curve" smooth="yes"/>
      <point x="368" y="599"/>
      <point x="250" y="494"/>
    </contour>
    <contour>
      <point x="100" y="350" type="curve" smooth="yes"/>
      <point x="137" y="559"/>
      <point x="319" y="712"/>
      <point x="527" y="712" type="curve" smooth="yes"/>
      <point x="736" y="712"/>
      <point x="864" y="559"/>
      <point x="827" y="350" type="curve" smooth="yes"/>
      <point x="790" y="141"/>
      <point x="608" y="-15"/>
      <point x="398" y="-15" type="curve" smooth="yes"/>
      <point x="188" y="-15"/>
      <point x="63" y="141"/>
    </contour>
    <contour>
      <point x="402" y="915" type="curve"/>
      <point x="484" y="915" type="line"/>
      <point x="479" y="885"/>
      <point x="492" y="846"/>
      <point x="550" y="846" type="curve" smooth="yes"/>
      <point x="608" y="846"/>
      <point x="636" y="885"/>
      <point x="641" y="915" type="curve"/>
      <point x="723" y="915" type="line"/>
      <point x="710" y="841"/>
      <point x="642" y="772"/>
      <point x="537" y="772" type="curve" smooth="yes"/>
      <point x="432" y="772"/>
      <point x="389" y="841"/>
    </contour>
  </outline>
</glyph>
<glyph name="oe" format="1">
  <advance width="900"/>
  <unicode hex="0153"/>
  <outline>
    <contour>
      <point x="794" y="250" type="line" smooth="yes"/>
      <point x="808" y="331"/>
      <point x="782" y="388"/>
      <point x="704" y="388" type="curve" smooth="yes"/>
      <point x="634" y="388"/>
      <point x="568" y="341"/>
      <point x="554" y="260" type="curve"/>
      <point x="547" y="230" type="line"/>
      <point x="530" y="132"/>
      <point x="570" y="78"/>
      <point x="650" y="78" type="curve" smooth="yes"/>
      <point x="712" y="78"/>
      <point x="758" y="107"/>
      <point x="795" y="152" type="curve"/>
      <point x="881" y="114" type="line"/>
      <point x="824" y="42"/>
      <point x="743" y="-10"/>
      <point x="644" y="-10" type="curve" smooth="yes"/>
      <point x="519" y="-10"/>
      <point x="446" y="91"/>
      <point x="471" y="230" type="curve" smooth="yes"/>
      <point x="474" y="247"/>
      <point x="477" y="263"/>
      <point x="483" y="279" type="curve" smooth="yes"/>
      <point x="522" y="392"/>
      <point x="622" y="470"/>
      <point x="741" y="470" type="curve" smooth="yes"/>
      <point x="851" y="470"/>
      <point x="932" y="379"/>
      <point x="906" y="234" type="curve" smooth="yes"/>
      <point x="905" y="226"/>
      <point x="902" y="213"/>
      <point x="900" y="205" type="curve"/>
      <point x="791" y="230" type="line"/>
    </contour>
    <contour>
      <point x="517" y="205" type="line"/>
      <point x="530" y="279" type="line"/>
      <point x="893" y="279" type="line"/>
      <point x="900" y="205" type="line"/>
    </contour>
    <contour>
      <point x="76" y="230" type="curve" smooth="yes"/>
      <point x="102" y="379"/>
      <point x="221" y="470"/>
      <point x="346" y="470" type="curve" smooth="yes"/>
      <point x="471" y="470"/>
      <point x="533" y="379"/>
      <point x="507" y="230" type="curve" smooth="yes"/>
      <point x="481" y="81"/>
      <point x="386" y="-10"/>
      <point x="261" y="-10" type="curve" smooth="yes"/>
      <point x="136" y="-10"/>
      <point x="50" y="81"/>
    </contour>
    <contour>
      <point x="185" y="230" type="curve" smooth="yes"/>
      <point x="168" y="136"/>
      <point x="220" y="85"/>
      <point x="295" y="85" type="curve" smooth="yes"/>
      <point x="360" y="85"/>
      <point x="426" y="136"/>
      <point x="443" y="230" type="curve" smooth="yes"/>
      <point x="460" y="324"/>
      <point x="411" y="375"/>
      <point x="346" y="375" type="curve" smooth="yes"/>
      <point x="271" y="375"/>
      <point x="202" y="324"/>
    </contour>
  </outline>
</glyph>
<glyph name="scedilla" format="1">
  <advance width="424"/>
  <unicode hex="015F"/>
  <outline>
    <contour>
      <point x="117" y="166" type="line"/>
      <point x="141" y="108"/>
      <point x="187" y="78"/>
      <point x="234" y="78" type="curve" smooth="yes"/>
      <point x="275" y="78"/>
      <point x="302" y="92"/>
      <point x="308" y="125" type="curve" smooth="yes"/>
      <point x="316" y="169"/>
      <point x="261" y="186"/>
      <point x="212" y="208" type="curve" smooth="yes"/>
      <point x="155" y="234"/>
      <point x="96" y="266"/>
      <point x="110" y="344" type="curve" smooth="yes"/>
      <point x="124" y="425"/>
      <point x="211" y="470"/>
      <point x="295" y="470" type="curve" smooth="yes"/>
      <point x="371" y="470"/>
      <point x="437" y="435"/>
      <point x="459" y="389" type="curve"/>
      <point x="387" y="325" type="line"/>
      <point x="365" y="358"/>
      <point x="320" y="380"/>
      <point x="283" y="380" type="curve" smooth="yes"/>
      <point x="246" y="380"/>
      <point x="220" y="369"/>
      <point x="215" y="339" type="curve" smooth="yes"/>
      <point x="209" y="307"/>
      <point x="267" y="289"/>
      <point x="317" y="267" type="curve" smooth="yes"/>
      <point x="377" y="241"/>
      <point x="433" y="202"/>
      <point x="420" y="130" type="curve" smooth="yes"/>
      <point x="402" y="28"/>
      <point x="327" y="-14"/>
      <point x="223" y="-14" type="curve" smooth="yes"/>
      <point x="133" y="-14"/>
      <point x="60" y="36"/>
      <point x="40" y="104" type="curve"/>
    </contour>
    <contour>
      <point x="225" y="64" type="line"/>
      <point x="307" y="62" type="line"/>
      <point x="203" y="-65" type="line"/>
      <point x="109" y="-115" type="line"/>
    </contour>
    <contour>
      <point x="299" y="-136" type="curve"/>
      <point x="227" y="-132" type="line"/>
      <point x="231" y="-107"/>
      <point x="211" y="-98"/>
      <point x="178" y="-98" type="curve" smooth="yes"/>
      <point x="168" y="-98"/>
      <point x="140" y="-99"/>
      <point x="109" y="-115" type="curve"/>
      <point x="166" y="-74" type="line"/>
      <point x="196" y="-54"/>
      <point x="213" y="-52"/>
      <point x="233" y="-52" type="curve" smooth="yes"/>
      <point x="269" y="-52"/>
      <point x="309" y="-80"/>
    </contour>
    <contour>
      <point x="299" y="-136" type="line"/>
      <point x="287" y="-202"/>
      <point x="222" y="-236"/>
      <point x="164" y="-236" type="curve" smooth="yes"/>
      <point x="120" y="-236"/>
      <point x="92" y="-227"/>
      <point x="61" y="-198" type="curve"/>
      <point x="107" y="-146" type="line"/>
      <point x="126" y="-163"/>
      <point x="144" y="-170"/>
      <point x="168" y="-170" type="curve" smooth="yes"/>
      <point x="202" y="-170"/>
      <point x="223" y="-156"/>
      <point x="227" y="-132" type="curve"/>
    </contour>
  </outline>
</glyph>
<glyph name="Ydieresis" format="1">
  <advance width="600"/>
  <unicode hex="0178"/>
  <outline>
    <contour>
      <point x="303" y="360" type="line"/>
      <point x="423" y="360" type="line"/>
      <point x="360" y="0" type="line"/>
      <point x="240" y="0" type="line"/>
    </contour>
    <contour>
      <point x="586" y="700" type="line"/>
      <point x="721" y="700" type="line"/>
      <point x="334" y="193" type="line"/>
      <point x="125" y="700" type="line"/>
      <point x="261" y="700" type="line"/>
      <point x="371" y="400" type="line"/>
    </contour>
    <contour>
      <point x="492" y="842" type="curve" smooth="yes"/>
      <point x="499" y="880"/>
      <point x="535" y="912"/>
      <point x="575" y="912" type="curve" smooth="yes"/>
      <point x="615" y="912"/>
      <point x="640" y="880"/>
      <point x="633" y="842" type="curve" smooth="yes"/>
      <point x="626" y="804"/>
      <point x="590" y="772"/>
      <point x="550" y="772" type="curve" smooth="yes"/>
      <point x="510" y="772"/>
      <point x="485" y="804"/>
    </contour>
    <contour>
      <point x="264" y="842" type="curve" smooth="yes"/>
      <point x="271" y="880"/>
      <point x="307" y="912"/>
      <point x="347" y="912" type="curve" smooth="yes"/>
      <point x="387" y="912"/>
      <point x="413" y="880"/>
      <point x="406" y="842" type="curve" smooth="yes"/>
      <point x="399" y="804"/>
      <point x="362" y="772"/>
      <point x="322" y="772" type="curve" smooth="yes"/>
      <point x="282" y="772"/>
      <point x="257" y="804"/>
    </contour>
  </outline>
</glyph>
<glyph name="uni0213" format="1">
  <advance width="370"/>
  <unicode hex="0213"/>
  <outline>
    <contour>
      <point x="257" y="460" type="line"/>
      <point x="176" y="0" type="line"/>
      <point x="69" y="0" type="line"/>
      <point x="150" y="460" type="line"/>
    </contour>
    <contour>
      <point x="374" y="344" type="line"/>
      <point x="357" y="360"/>
      <point x="343" y="369"/>
      <point x="317" y="369" type="curve" smooth="yes"/>
      <point x="263" y="369"/>
      <point x="234" y="325"/>
      <point x="222" y="259" type="curve"/>
      <point x="189" y="280" type="line"/>
      <point x="208" y="389"/>
      <point x="294" y="470"/>
      <point x="364" y="470" type="curve" smooth="yes"/>
      <point x="397" y="470"/>
      <point x="426" y="460"/>
      <point x="443" y="436" type="curve"/>
    </contour>
    <contour>
      <point x="150" y="530" type="curve"/>
      <point x="232" y="530" type="line"/>
      <point x="237" y="560"/>
      <point x="266" y="599"/>
      <point x="324" y="599" type="curve" smooth="yes"/>
      <point x="382" y="599"/>
      <point x="394" y="560"/>
      <point x="389" y="530" type="curve"/>
      <point x="471" y="530" type="line"/>
      <point x="484" y="604"/>
      <point x="442" y="673"/>
      <point x="337" y="673" type="curve" smooth="yes"/>
      <point x="232" y="673"/>
      <point x="163" y="604"/>
    </contour>
  </outline>
</glyph>
<glyph name="uni0219" format="1">
  <advance width="424"/>
  <unicode hex="0219"/>
  <outline>
    <contour>
      <point x="117" y="166" type="line"/>
      <point x="141" y="108"/>
      <point x="187" y="78"/>
      <point x="234" y="78" type="curve" smooth="yes"/>
      <point x="275" y="78"/>
      <point x="302" y="92"/>
      <point x="308" y="125" type="curve" smooth="yes"/>
      <point x="316" y="169"/>
      <point x="261" y="186"/>
      <point x="212" y="208" type="curve" smooth="yes"/>
      <point x="155" y="234"/>
      <point x="96" y="266"/>
      <point x="110" y="344" type="curve" smooth="yes"/>
      <point x="124" y="425"/>
      <point x="211" y="470"/>
      <point x="295" y="470" type="curve" smooth="yes"/>
      <point x="371" y="470"/>
      <point x="437" y="435"/>
      <point x="459" y="389" type="curve"/>
      <point x="387" y="325" type="line"/>
      <point x="365" y="358"/>
      <point x="320" y="380"/>
      <point x="283" y="380" type="curve" smooth="yes"/>
      <point x="246" y="380"/>
      <point x="220" y="369"/>
      <point x="215" y="339" type="curve" smooth="yes"/>
      <point x="209" y="307"/>
      <point x="267" y="289"/>
      <point x="317" y="267" type="curve" smooth="yes"/>
      <point x="377" y="241"/>
      <point x="433" y="202"/>
      <point x="420" y="130" type="curve" smooth="yes"/>
      <point x="402" y="28"/>
      <point x="327" y="-14"/>
      <point x="223" y="-14" type="curve" smooth="yes"/>
      <point x="133" y="-14"/>
      <point x="60" y="36"/>
      <point x="40" y="104" type="curve"/>
    </contour>
    <contour>
      <point x="193" y="-69" type="line"/>
      <point x="295" y="-100" type="line"/>
      <point x="135" y="-350" type="line"/>
      <point x="59" y="-328" type="line"/>
    </contour>
  </outline>
</glyph>
<glyph name="uni0237" format="1">
  <advance width="258"/>
  <unicode hex="0237"/>
  <outline>
    <contour>
      <point x="-41" y="-99" type="line"/>
      <point x="-31" y="-120"/>
      <point x="-15" y="-125"/>
      <point x="2" y="-125" type="curve" smooth="yes"/>
      <point x="32" y="-125"/>
      <point x="54" y="-102"/>
      <point x="64" y="-44" type="curve" smooth="yes"/>
      <point x="153" y="460" type="line"/>
      <point x="260" y="460" type="line"/>
      <point x="168" y="-65" type="line" smooth="yes"/>
      <point x="149" y="-171"/>
      <point x="86" y="-228"/>
      <point x="-10" y="-228" type="curve" smooth="yes"/>
      <point x="-63" y="-228"/>
      <point x="-92" y="-203"/>
      <point x="-106" y="-183" type="curve"/>
    </contour>
  </outline>
</glyph>
<glyph name="breve" format="1">
  <advance width="546"/>
  <unicode hex="02D8"/>
  <outline>
    <contour>
      <point x="262" y="850" type="curve"/>
      <point x="345" y="850" type="line"/>
      <point x="340" y="820"/>
      <point x="353" y="781"/>
      <point x="411" y="781" type="curve" smooth="yes"/>
      <point x="469" y="781"/>
      <point x="496" y="820"/>
      <point x="501" y="850" type="curve"/>
      <point x="584" y="850" type="line"/>
      <point x="571" y="776"/>
      <point x="503" y="708"/>
      <point x="398" y="708" type="curve" smooth="yes"/>
      <point x="293" y="708"/>
      <point x="249" y="776"/>
    </contour>
  </outline>
</glyph>
<glyph name="figuredash" format="1">
  <advance width="605"/>
  <unicode hex="2012"/>
  <outline>
    <contour>
      <point x="103" y="189" type="line"/>
      <point x="120" y="286" type="line"/>
      <point x="581" y="286" type="line"/>
      <point x="564" y="189" type="line"/>
    </contour>
  </outline>
</glyph>
<glyph name="quoteleft" format="1">
  <advance width="297"/>
  <unicode hex="2018"/>
  <outline>
    <contour>
      <point x="271" y="460" type="line"/>
      <point x="151" y="460" type="line"/>
      <point x="294" y="700" type="line"/>
      <point x="371" y="700" type="line"/>
    </contour>
  </outline>
</glyph>
<glyph name="quotedblright" format="1">
  <advance width="510"/>
  <unicode hex="201D"/>
  <outline>
    <contour>
      <point x="231" y="700" type="line"/>
      <point x="351" y="700" type="line"/>
      <point x="207" y="460" type="line"/>
      <point x="131" y="460" type="line"/>
    </contour>
    <contour>
      <point x="443" y="700" type="line"/>
      <point x="563" y="700" type="line"/>
      <point x="420" y="460" type="line"/>
      <point x="343" y="460" type="line"/>
    </contour>
  </outline>
</glyph>
<glyph name="daggerdbl" format="1">
  <advance width="595"/>
  <unicode hex="2021"/>
  <outline>
    <contour>
      <point x="114" y="135" type="line"/>
      <point x="529" y="135" type="line"/>
      <point x="512" y="40" type="line"/>
      <point x="97" y="40" type="line"/>
    </contour>
    <contour>
      <point x="185" y="540" type="line"/>
      <point x="600" y="540" type="line"/>
      <point x="583" y="445" type="line"/>
      <point x="168" y="445" type="line"/>
    </contour>
    <contour>
      <point x="368" y="700" type="line"/>
      <point x="473" y="700" type="line"/>
      <point x="324" y="-150" type="line"/>
      <point x="219" y="-150" type="line"/>
    </contour>
  </outline>
</glyph>
<glyph name="guilsinglleft" format="1">
  <advance width="350"/>
  <unicode hex="2039"/>
  <outline>
    <contour>
      <point x="159" y="235" type="line"/>
      <point x="80" y="255" type="line"/>
      <point x="308" y="498" type="line"/>
      <point x="366" y="445" type="line"/>
    </contour>
    <contour>
      <point x="80" y="255" type="line"/>
      <point x="168" y="285" type="line"/>
      <point x="299" y="65" type="line"/>
      <point x="222" y="12" type="line"/>
    </contour>
  </outline>
</glyph>
<glyph name="guilsinglright" format="1">
  <advance width="350"/>
  <unicode hex="203A"/>
  <outline>
    <contour>
      <point x="280" y="275" type="line"/>
      <point x="360" y="255" type="line"/>
      <point x="132" y="12" type="line"/>
      <point x="73" y="65" type="line"/>
    </contour>
    <contour>
      <point x="360" y="255" type="line"/>
      <point x="272" y="225" type="line"/>
      <point x="140" y="445" type="line"/>
      <point x="218" y="498" type="line"/>
    </contour>
  </outline>
</glyph>
<glyph name="uni203D" format="1">
  <advance width="585"/>
  <unicode hex="203D"/>
  <outline>
    <contour>
      <point x="510" y="492" type="curve" smooth="yes"/>
      <point x="524" y="573"/>
      <point x="477" y="618"/>
      <point x="391" y="618" type="curve" smooth="yes"/>
      <point x="327" y="618"/>
      <point x="270" y="588"/>
      <point x="229" y="533" type="curve"/>
      <point x="159" y="592" type="line"/>
      <point x="217" y="662"/>
      <point x="298" y="713"/>
      <point x="420" y="713" type="curve" smooth="yes"/>
      <point x="548" y="713"/>
      <point x="638" y="626"/>
      <point x="616" y="500" type="curve" smooth="yes"/>
      <point x="593" y="368"/>
      <point x="447" y="285"/>
      <point x="332" y="285" type="curve"/>
      <point x="305" y="346" type="line"/>
      <point x="410" y="346"/>
      <point x="497" y="416"/>
    </contour>
    <contour>
      <point x="296" y="508" type="line"/>
      <point x="414" y="508" type="line"/>
      <point x="333" y="182" type="line"/>
      <point x="261" y="182" type="line"/>
    </contour>
    <contour>
      <point x="205" y="49" type="curve" smooth="yes"/>
      <point x="212" y="87"/>
      <point x="248" y="116"/>
      <point x="288" y="116" type="curve" smooth="yes"/>
      <point x="328" y="116"/>
      <point x="355" y="87"/>
      <point x="348" y="49" type="curve" smooth="yes"/>
      <point x="341" y="11"/>
      <point x="305" y="-19"/>
      <point x="265" y="-19" type="curve" smooth="yes"/>
      <point x="225" y="-19"/>
      <point x="198" y="11"/>
    </contour>
  </outline>
</glyph>
<glyph name="uni2077" format="1">
  <advance width="364"/>
  <unicode hex="2077"/>
  <outline>
    <contour>
      <point x="139" y="633" type="line"/>
      <point x="150" y="700" type="line"/>
      <point x="464" y="700" type="line"/>
      <point x="188" y="280" type="line"/>
      <point x="113" y="280" type="line"/>
      <point x="348" y="633" type="line"/>
    </contour>
  </outline>
</glyph>
<glyph name="uni2078" format="1">
  <advance width="338"/>
  <unicode hex="2078"/>
  <outline>
    <contour>
      <point x="148" y="599" type="curve" smooth="yes"/>
      <point x="159" y="663"/>
      <point x="223" y="708"/>
      <point x="293" y="708" type="curve" smooth="yes"/>
      <point x="363" y="708"/>
      <point x="412" y="663"/>
      <point x="401" y="599" type="curve" smooth="yes"/>
      <point x="389" y="529"/>
      <point x="323" y="490"/>
      <point x="254" y="490" type="curve" smooth="yes"/>
      <point x="185" y="490"/>
      <point x="136" y="529"/>
    </contour>
    <contour>
      <point x="214" y="592" type="curve" smooth="yes"/>
      <point x="208" y="556"/>
      <point x="230" y="532"/>
      <point x="262" y="532" type="curve" smooth="yes"/>
      <point x="294" y="532"/>
      <point x="325" y="556"/>
      <point x="331" y="592" type="curve" smooth="yes"/>
      <point x="337" y="628"/>
      <point x="317" y="651"/>
      <point x="283" y="651" type="curve" smooth="yes"/>
      <point x="249" y="651"/>
      <point x="220" y="628"/>
    </contour>
    <contour>
      <point x="96" y="394" type="curve" smooth="yes"/>
      <point x="110" y="476"/>
      <point x="190" y="516"/>
      <point x="259" y="516" type="curve" smooth="yes"/>
      <point x="328" y="516"/>
      <point x="393" y="476"/>
      <point x="379" y="394" type="curve" smooth="yes"/>
      <point x="367" y="324"/>
      <point x="294" y="272"/>
      <point x="216" y="272" type="curve" smooth="yes"/>
      <point x="138" y="272"/>
      <point x="84" y="324"/>
    </contour>
    <contour>
      <point x="168" y="404" type="curve" smooth="yes"/>
      <point x="160" y="358"/>
      <point x="189" y="332"/>
      <point x="227" y="332" type="curve" smooth="yes"/>
      <point x="265" y="332"/>
      <point x="303" y="358"/>
      <point x="311" y="404" type="curve" smooth="yes"/>
      <point x="318" y="444"/>
      <point x="290" y="474"/>
      <point x="252" y="474" type="curve" smooth="yes"/>
      <point x="214" y="474"/>
      <point x="175" y="444"/>
    </contour>
  </outline>
</glyph>
<glyph name="uni2081" format="1">
  <advance width="332"/>
  <unicode hex="2081"/>
  <outline>
    <contour>
      <point x="147" y="322" type="line"/>
      <point x="159" y="390" type="line"/>
      <point x="332" y="428" type="line"/>
      <point x="257" y="1" type="line"/>
      <point x="188" y="1" type="line"/>
      <point x="250" y="350" type="line"/>
    </contour>
  </outline>
</glyph>
<glyph name="uni2082" format="1">
  <advance width="372"/>
  <unicode hex="2082"/>
  <outline>
    <contour>
      <point x="26" y="2" type="line"/>
      <point x="256" y="207" type="line" smooth="yes"/>
      <point x="292" y="239"/>
      <point x="315" y="266"/>
      <point x="321" y="300" type="curve" smooth="yes"/>
      <point x="327" y="333"/>
      <point x="311" y="366"/>
      <point x="265" y="366" type="curve" smooth="yes"/>
      <point x="217" y="366"/>
      <point x="177" y="330"/>
      <point x="167" y="274" type="curve"/>
      <point x="97" y="274" type="line"/>
      <point x="113" y="363"/>
      <point x="181" y="430"/>
      <point x="277" y="430" type="curve" smooth="yes"/>
      <point x="374" y="430"/>
      <point x="405" y="359"/>
      <point x="394" y="299" type="curve" smooth="yes"/>
      <point x="386" y="255"/>
      <point x="355" y="217"/>
      <point x="315" y="184" type="curve" smooth="yes"/>
      <point x="176" y="68" type="line"/>
      <point x="358" y="68" type="line"/>
      <point x="346" y="2" type="line"/>
    </contour>
  </outline>
</glyph>
<glyph name="Euro" format="1">
  <advance width="610"/>
  <unicode hex="20AC"/>
  <outline>
    <contour>
      <point x="101" y="397" type="line"/>
      <point x="112" y="459" type="line"/>
      <point x="609" y="459" type="line"/>
      <point x="598" y="397" type="line"/>
    </contour>
    <contour>
      <point x="73" y="272" type="line"/>
      <point x="84" y="335" type="line"/>
      <point x="563" y="335" type="line"/>
      <point x="552" y="272" type="line"/>
    </contour>
    <contour>
      <point x="254" y="350" type="curve" smooth="yes"/>
      <point x="226" y="192"/>
      <point x="288" y="90"/>
      <point x="404" y="90" type="curve" smooth="yes"/>
      <point x="461" y="90"/>
      <point x="517" y="112"/>
      <point x="565" y="152" type="curve"/>
      <point x="543" y="27" type="line"/>
      <point x="493" y="1"/>
      <point x="440" y="-14"/>
      <point x="386" y="-14" type="curve" smooth="yes"/>
      <point x="204" y="-14"/>
      <point x="107" y="141"/>
      <point x="144" y="350" type="curve" smooth="yes"/>
      <point x="181" y="559"/>
      <point x="332" y="714"/>
      <point x="514" y="714" type="curve" smooth="yes"/>
      <point x="568" y="714"/>
      <point x="617" y="699"/>
      <point x="657" y="673" type="curve"/>
      <point x="635" y="548" type="line"/>
      <point x="601" y="588"/>
      <point x="553" y="610"/>
      <point x="496" y="610" type="curve" smooth="yes"/>
      <point x="380" y="610"/>
      <point x="282" y="508"/>
    </contour>
  </outline>
</glyph>
<glyph name="trademark" format="1">
  <advance width="697"/>
  <unicode hex="2122"/>
  <outline>
    <contour>
      <point x="145" y="646" type="line"/>
      <point x="154" y="700" type="line"/>
      <point x="399" y="700" type="line"/>
      <point x="390" y="646" type="line"/>
      <point x="297" y="646" type="line"/>
      <point x="245" y="350" type="line"/>
      <point x="186" y="350" type="line"/>
      <point x="238" y="646" type="line"/>
    </contour>
    <contour>
      <point x="683" y="598" type="line"/>
      <point x="746" y="717" type="line"/>
      <point x="729" y="350" type="line"/>
      <point x="668" y="350" type="line"/>
    </contour>
    <contour>
      <point x="458" y="717" type="line"/>
      <point x="479" y="598" type="line"/>
      <point x="407" y="350" type="line"/>
      <point x="346" y="350" type="line"/>
    </contour>
    <contour>
      <point x="746" y="717" type="line"/>
      <point x="729" y="620" type="line"/>
      <point x="543" y="382" type="line"/>
      <point x="441" y="620" type="line"/>
      <point x="458" y="717" type="line"/>
      <point x="561" y="480" type="line"/>
    </contour>
  </outline>
</glyph>
<glyph name="uni2152" format="1">
  <advance width="1132"/>
  <unicode hex="2152"/>
  <outline>
    <contour>
      <point x="703" y="700" type="line"/>
      <point x="791" y="700" type="line"/>
      <point x="148" y="0" type="line"/>
      <point x="60" y="0" type="line"/>
    </contour>
    <contour>
      <point x="133" y="596" type="line"/>
      <point x="145" y="663" type="line"/>
      <point x="319" y="701" type="line"/>
      <point x="243" y="274" type="line"/>
      <point x="173" y="274" type="line"/>
      <point x="235" y="623" type="line"/>
    </contour>
    <contour>
      <point x="570" y="322" type="line"/>
      <point x="582" y="390" type="line"/>
      <point x="755" y="428" type="line"/>
      <point x="680" y="1" type="line"/>
      <point x="610" y="1" type="line"/>
      <point x="672" y="350" type="line"/>
    </contour>
    <contour>
      <point x="881" y="210" type="curve" smooth="yes"/>
      <point x="865" y="120"/>
      <point x="890" y="57"/>
      <point x="948" y="57" type="curve" smooth="yes"/>
      <point x="1006" y="57"/>
      <point x="1053" y="120"/>
      <point x="1069" y="210" type="curve" smooth="yes"/>
      <point x="1085" y="300"/>
      <point x="1060" y="363"/>
      <point x="1002" y="363" type="curve" smooth="yes"/>
      <point x="944" y="363"/>
      <point x="897" y="300"/>
    </contour>
    <contour>
      <point x="811" y="210" type="curve" smooth="yes"/>
      <point x="834" y="340"/>
      <point x="917" y="427"/>
      <point x="1013" y="427" type="curve" smooth="yes"/>
      <point x="1111" y="427"/>
      <point x="1161" y="340"/>
      <point x="1138" y="210" type="curve" smooth="yes"/>
      <point x="1115" y="80"/>
      <point x="1035" y="-7"/>
      <point x="937" y="-7" type="curve" smooth="yes"/>
      <point x="841" y="-7"/>
      <point x="788" y="80"/>
    </contour>
  </outline>
</glyph>
<glyph name="uni2158" format="1">
  <advance width="926"/>
  <unicode hex="2158"/>
  <outline>
    <contour>
      <point x="831" y="700" type="line"/>
      <point x="918" y="700" type="line"/>
      <point x="275" y="0" type="line"/>
      <point x="188" y="0" type="line"/>
    </contour>
    <contour>
      <point x="90" y="360" type="line"/>
      <point x="158" y="416" type="line"/>
      <point x="342" y="416" type="line" smooth="yes"/>
      <point x="353" y="422" type="line" smooth="yes"/>
      <point x="447" y="422" type="line"/>
      <point x="436" y="360" type="line"/>
    </contour>
    <contour>
      <point x="166" y="372" type="line"/>
      <point x="90" y="360" type="line"/>
      <point x="387" y="700" type="line"/>
      <point x="430" y="700" type="line"/>
      <point x="356" y="280" type="line"/>
      <point x="283" y="280" type="line"/>
      <point x="301" y="382" type="line" smooth="yes"/>
      <point x="307" y="388" type="line" smooth="yes"/>
      <point x="340" y="574" type="line"/>
    </contour>
    <contour>
      <point x="920" y="134" type="curve" smooth="yes"/>
      <point x="903" y="38"/>
      <point x="819" y="-9"/>
      <point x="738" y="-9" type="curve" smooth="yes"/>
      <point x="661" y="-9"/>
      <point x="621" y="26"/>
      <point x="596" y="66" type="curve"/>
      <point x="646" y="117" type="line"/>
      <point x="665" y="84"/>
      <point x="701" y="57"/>
      <point x="741" y="57" type="curve" smooth="yes"/>
      <point x="797" y="57"/>
      <point x="836" y="88"/>
      <point x="845" y="139" type="curve" smooth="yes"/>
      <point x="854" y="190"/>
      <point x="819" y="220"/>
      <point x="770" y="220" type="curve" smooth="yes"/>
      <point x="733" y="220"/>
      <point x="701" y="212"/>
      <point x="653" y="186" type="curve"/>
      <point x="707" y="231" type="line"/>
      <point x="743" y="263"/>
      <point x="780" y="274"/>
      <point x="818" y="274" type="curve" smooth="yes"/>
      <point x="888" y="274"/>
      <point x="935" y="218"/>
    </contour>
    <contour>
      <point x="793" y="356" type="line"/>
      <point x="739" y="239" type="line"/>
      <point x="653" y="186" type="line"/>
      <point x="750" y="418" type="line"/>
      <point x="966" y="418" type="line"/>
      <point x="955" y="356" type="line"/>
    </contour>
  </outline>
</glyph>
<glyph name="seveneighths" format="1">
  <advance width="807"/>
  <unicode hex="215E"/>
  <outline>
    <contour>
      <point x="703" y="700" type="line"/>
      <point x="791" y="700" type="line"/>
      <point x="148" y="0" type="line"/>
      <point x="60" y="0" type="line"/>
    </contour>
    <contour>
      <point x="139" y="633" type="line"/>
      <point x="150" y="700" type="line"/>
      <point x="464" y="700" type="line"/>
      <point x="188" y="280" type="line"/>
      <point x="113" y="280" type="line"/>
      <point x="348" y="633" type="line"/>
    </contour>
    <contour>
      <point x="565" y="319" type="curve" smooth="yes"/>
      <point x="576" y="383"/>
      <point x="640" y="428"/>
      <point x="710" y="428" type="curve" smooth="yes"/>
      <point x="780" y="428"/>
      <point x="829" y="383"/>
      <point x="818" y="319" type="curve" smooth="yes"/>
      <point x="806" y="249"/>
      <point x="741" y="210"/>
      <point x="672" y="210" type="curve" smooth="yes"/>
      <point x="603" y="210"/>
      <point x="553" y="249"/>
    </contour>
    <contour>
      <point x="631" y="312" type="curve" smooth="yes"/>
      <point x="625" y="276"/>
      <point x="647" y="252"/>
      <point x="679" y="252" type="curve" smooth="yes"/>
      <point x="711" y="252"/>
      <point x="743" y="276"/>
      <point x="749" y="312" type="curve" smooth="yes"/>
      <point x="755" y="348"/>
      <point x="734" y="371"/>
      <point x="700" y="371" type="curve" smooth="yes"/>
      <point x="666" y="371"/>
      <point x="637" y="348"/>
    </contour>
    <contour>
      <point x="514" y="114" type="curve" smooth="yes"/>
      <point x="528" y="196"/>
      <point x="608" y="236"/>
      <point x="677" y="236" type="curve" smooth="yes"/>
      <point x="746" y="236"/>
      <point x="811" y="196"/>
      <point x="797" y="114" type="curve" smooth="yes"/>
      <point x="785" y="44"/>
      <point x="712" y="-8"/>
      <point x="634" y="-8" type="curve" smooth="yes"/>
      <point x="556" y="-8"/>
      <point x="502" y="44"/>
    </contour>
    <contour>
      <point x="586" y="124" type="curve" smooth="yes"/>
      <point x="578" y="78"/>
      <point x="606" y="52"/>
      <point x="644" y="52" type="curve" smooth="yes"/>
      <point x="682" y="52"/>
      <point x="721" y="78"/>
      <point x="729" y="124" type="curve" smooth="yes"/>
      <point x="736" y="164"/>
      <point x="707" y="194"/>
      <point x="669" y="194" type="curve" smooth="yes"/>
      <point x="631" y="194"/>
      <point x="593" y="164"/>
    </contour>
  </outline>
</glyph>
<glyph name="uniFF13" format="1">
  <advance width="600"/>
  <unicode hex="FF13"/>
  <outline>
    <contour>
      <point x="331" y="342" type="curve"/>
      <point x="343" y="406" type="line"/>
      <point x="428" y="406"/>
      <point x="488" y="456"/>
      <point x="499" y="516" type="curve" smooth="yes"/>
      <point x="509" y="572"/>
      <point x="483" y="611"/>
      <point x="420" y="611" type="curve" smooth="yes"/>
      <point x="360" y="611"/>
      <point x="307" y="570"/>
      <point x="297" y="514" type="curve"/>
      <point x="185" y="514" type="line"/>
      <point x="205" y="629"/>
      <point x="308" y="711"/>
      <point x="437" y="711" type="curve" smooth="yes"/>
      <point x="572" y="711"/>
      <point x="637" y="625"/>
      <point x="619" y="522" type="curve" smooth="yes"/>
      <point x="600" y="414"/>
      <point x="479" y="342"/>
    </contour>
    <contour>
      <point x="304" y="-12" type="curve" smooth="yes"/>
      <point x="155" y="-12"/>
      <point x="79" y="85"/>
      <point x="99" y="200" type="curve"/>
      <point x="218" y="200" type="line"/>
      <point x="206" y="133"/>
      <point x="254" y="90"/>
      <point x="325" y="90" type="curve" smooth="yes"/>
      <point x="396" y="90"/>
      <point x="451" y="130"/>
      <point x="463" y="200" type="curve" smooth="yes"/>
      <point x="476" y="275"/>
      <point x="422" y="318"/>
      <point x="327" y="318" type="curve"/>
      <point x="339" y="385" type="line"/>
      <point x="494" y="385"/>
      <point x="605" y="328"/>
      <point x="580" y="188" type="curve" smooth="yes"/>
      <point x="559" y="68"/>
      <point x="448" y="-12"/>
    </contour>
  </outline>
</glyph>
<glyph name="uniFF16" format="1">
  <advance width="600"/>
  <unicode hex="FF16"/>
  <outline>
    <contour>
      <point x="200" y="236" type="curve" smooth="yes"/>
      <point x="185" y="150"/>
      <point x="235" y="92"/>
      <point x="316" y="92" type="curve" smooth="yes"/>
      <point x="397" y="92"/>
      <point x="468" y="150"/>
      <point x="483" y="236" type="curve" smooth="yes"/>
      <point x="498" y="322"/>
      <point x="449" y="383"/>
      <point x="368" y="383" type="curve" smooth="yes"/>
      <point x="287" y="383"/>
      <point x="215" y="322"/>
    </contour>
    <contour>
      <point x="447" y="699" type="line"/>
      <point x="597" y="699" type="line"/>
      <point x="327" y="424" type="line"/>
      <point x="309" y="421" type="line"/>
      <point x="346" y="455"/>
      <point x="381" y="464"/>
      <point x="428" y="464" type="curve" smooth="yes"/>
      <point x="538" y="464"/>
      <point x="622" y="370"/>
      <point x="598" y="236" type="curve" smooth="yes"/>
      <point x="571" y="81"/>
      <point x="442" y="-12"/>
      <point x="298" y="-12" type="curve" smooth="yes"/>
      <point x="154" y="-12"/>
      <point x="58" y="81"/>
      <point x="85" y="236" type="curve" smooth="yes"/>
      <point x="96" y="300"/>
      <point x="131" y="356"/>
      <point x="173" y="401" type="curve" smooth="yes"/>
    </contour>
  </outline>
</glyph>
<glyph name="uniFF17" format="1">
  <advance width="600"/>
  <unicode hex="FF17"/>
  <outline>
    <contour>
      <point x="154" y="589" type="line"/>
      <point x="173" y="700" type="line"/>
      <point x="696" y="700" type="line"/>
      <point x="236" y="0" type="line"/>
      <point x="110" y="0" type="line"/>
      <point x="500" y="589" type="line"/>
    </contour>
  </outline>
</glyph>
<glyph name="acircumflex.alt" format="1">
  <advance width="588"/>
  <outline>
    <contour>
      <point x="500" y="460" type="line"/>
      <point x="605" y="460" type="line"/>
      <point x="524" y="0" type="line"/>
      <point x="419" y="0" type="line"/>
    </contour>
    <contour>
      <point x="75" y="230" type="curve" smooth="yes"/>
      <point x="102" y="384"/>
      <point x="221" y="472"/>
      <point x="341" y="472" type="curve" smooth="yes"/>
      <point x="459" y="472"/>
      <point x="518" y="379"/>
      <point x="492" y="230" type="curve" smooth="yes"/>
      <point x="466" y="81"/>
      <point x="374" y="-12"/>
      <point x="256" y="-12" type="curve" smooth="yes"/>
      <point x="136" y="-12"/>
      <point x="48" y="76"/>
    </contour>
    <contour>
      <point x="187" y="230" type="curve" smooth="yes"/>
      <point x="171" y="138"/>
      <point x="224" y="86"/>
      <point x="299" y="86" type="curve" smooth="yes"/>
      <point x="361" y="86"/>
      <point x="439" y="136"/>
      <point x="456" y="230" type="curve" smooth="yes"/>
      <point x="473" y="324"/>
      <point x="412" y="374"/>
      <point x="350" y="374" type="curve" smooth="yes"/>
      <point x="275" y="374"/>
      <point x="203" y="322"/>
    </contour>
    <contour>
      <point x="402" y="621" type="line"/>
      <point x="283" y="530" type="line"/>
      <point x="221" y="582" type="line"/>
      <point x="420" y="722" type="line"/>
      <point x="571" y="582" type="line"/>
      <point x="489" y="530" type="line"/>
    </contour>
  </outline>
</glyph>
<glyph name="atilde.alt" format="1">
  <advance width="588"/>
  <outline>
    <contour>
      <point x="500" y="460" type="line"/>
      <point x="605" y="460" type="line"/>
      <point x="524" y="0" type="line"/>
      <point x="419" y="0" type="line"/>
    </contour>
    <contour>
      <point x="75" y="230" type="curve" smooth="yes"/>
      <point x="102" y="384"/>
      <point x="221" y="472"/>
      <point x="341" y="472" type="curve" smooth="yes"/>
      <point x="459" y="472"/>
      <point x="518" y="379"/>
      <point x="492" y="230" type="curve" smooth="yes"/>
      <point x="466" y="81"/>
      <point x="374" y="-12"/>
      <point x="256" y="-12" type="curve" smooth="yes"/>
      <point x="136" y="-12"/>
      <point x="48" y="76"/>
    </contour>
    <contour>
      <point x="187" y="230" type="curve" smooth="yes"/>
      <point x="171" y="138"/>
      <point x="224" y="86"/>
      <point x="299" y="86" type="curve" smooth="yes"/>
      <point x="361" y="86"/>
      <point x="439" y="136"/>
      <point x="456" y="230" type="curve" smooth="yes"/>
      <point x="473" y="324"/>
      <point x="412" y="374"/>
      <point x="350" y="374" type="curve" smooth="yes"/>
      <point x="275" y="374"/>
      <point x="203" y="322"/>
    </contour>
    <contour>
      <point x="222" y="580" type="line"/>
      <point x="241" y="629"/>
      <point x="296" y="666"/>
      <point x="348" y="666" type="curve" smooth="yes"/>
      <point x="414" y="666"/>
      <point x="414" y="618"/>
      <point x="469" y="618" type="curve" smooth="yes"/>
      <point x="491" y="618"/>
      <point x="512" y="636"/>
      <point x="538" y="668" type="curve"/>
      <point x="584" y="612" type="line"/>
      <point x="561" y="575"/>
      <point x="507" y="534"/>
      <point x="452" y="534" type="curve" smooth="yes"/>
      <point x="397" y="534"/>
      <point x="380" y="584"/>
      <point x="333" y="584" type="curve" smooth="yes"/>
      <point x="293" y="584"/>
      <point x="278" y="547"/>
      <point x="275" y="532" type="curve"/>
    </contour>
  </outline>
</glyph>
